<?xml version="1.0" standalone="no"?>
<!DOCTYPE svg PUBLIC "-//W3C//DTD SVG 20010904//EN"
 "http://www.w3.org/TR/2001/REC-SVG-20010904/DTD/svg10.dtd">
<svg version="1.0" xmlns="http://www.w3.org/2000/svg"
 width="700.000000pt" height="700.000000pt" viewBox="0 0 700.000000 700.000000"
 preserveAspectRatio="xMidYMid meet">
<metadata>
Created by potrace 1.11, written by Peter Selinger 2001-2013
</metadata>
<g transform="translate(0.000000,700.000000) scale(0.100000,-0.100000)"
fill="#000000" stroke="none">
<path d="M3937 6985 c-122 -25 -254 -103 -337 -202 -220 -261 -205 -620 34
-858 75 -75 190 -140 291 -166 70 -19 227 -16 300 5 63 18 141 52 162 70 6 6
30 22 53 36 43 26 145 142 173 196 57 111 72 179 71 319 0 93 -5 122 -28 188
-56 162 -165 284 -324 367 -95 49 -271 69 -395 45z"/>
<path d="M3878 5505 c-2 -1 -41 -6 -88 -9 -89 -7 -125 -11 -175 -20 -16 -3
-46 -8 -65 -11 -34 -5 -106 -21 -240 -52 -143 -33 -310 -88 -443 -147 -18 -7
-63 -27 -101 -42 -135 -55 -414 -223 -579 -347 -100 -76 -127 -99 -238 -205
l-86 -82 240 -243 241 -243 58 54 c266 250 616 452 958 553 126 38 206 57 280
69 41 6 86 13 100 16 182 29 515 23 733 -12 144 -23 407 -98 517 -146 301
-134 511 -271 764 -500 17 -16 33 -28 36 -28 3 0 113 108 245 240 l239 240
-54 53 c-56 53 -212 187 -285 243 -56 42 -203 144 -209 144 -3 0 -25 13 -49
29 -68 46 -260 145 -392 201 -208 89 -409 151 -605 186 -14 2 -45 8 -70 14
-41 8 -95 17 -235 36 -46 6 -491 14 -497 9z"/>
<path d="M1036 4432 c-16 -65 -20 -83 -31 -134 -12 -59 -17 -91 -30 -193 -4
-27 -8 -60 -10 -72 -10 -64 -17 -185 -17 -328 -1 -174 6 -283 26 -412 3 -21 8
-60 12 -88 3 -27 9 -63 14 -80 5 -16 11 -46 14 -65 16 -117 79 -340 143 -500
148 -374 347 -699 597 -975 70 -78 269 -270 333 -322 12 -10 30 -25 40 -33 59
-48 272 -195 353 -242 52 -31 158 -87 235 -125 141 -68 154 -74 254 -113 74
-29 283 -91 288 -86 4 4 58 195 67 236 3 14 23 90 46 170 22 80 42 152 44 161
3 9 9 33 14 53 6 20 7 37 4 39 -4 2 -45 16 -92 32 -639 207 -1149 642 -1442
1228 -205 410 -288 836 -255 1309 7 101 10 118 22 178 3 14 7 43 11 65 3 22
14 73 24 113 10 39 15 74 11 76 -4 3 -69 21 -146 41 -143 37 -467 123 -496
131 -13 3 -20 -10 -33 -64z"/>
<path d="M5605 3752 c-170 -47 -312 -87 -314 -89 -2 -1 2 -29 9 -60 7 -32 15
-71 17 -88 3 -16 11 -59 18 -95 39 -185 39 -564 0 -775 -8 -44 -16 -91 -19
-105 -11 -66 -69 -274 -96 -350 -50 -137 -192 -420 -242 -485 -4 -5 -31 -44
-59 -86 -189 -287 -531 -585 -869 -760 -146 -76 -210 -102 -360 -151 -86 -29
-129 -47 -125 -55 2 -7 18 -63 34 -125 80 -300 140 -520 143 -523 4 -5 189 48
234 66 185 75 300 126 394 176 58 31 115 61 127 67 13 6 23 14 23 19 0 4 5 7
11 7 23 0 256 162 379 263 319 265 593 600 775 951 71 137 166 358 210 491 32
97 91 316 99 370 2 11 7 43 11 70 4 28 9 58 11 69 6 34 18 150 30 286 12 134
8 341 -11 545 -2 17 -8 57 -14 90 -6 33 -13 74 -15 90 -3 17 -15 73 -26 125
-12 52 -23 107 -27 123 -3 17 -11 27 -22 26 -9 -1 -155 -40 -326 -87z"/>
<path d="M550 2313 c-251 -41 -437 -195 -517 -426 -24 -71 -28 -97 -28 -192 0
-64 6 -131 14 -160 62 -221 218 -382 431 -446 96 -29 246 -31 334 -5 65 19
163 66 198 94 105 84 163 157 210 260 180 396 -109 860 -546 876 -39 2 -82 1
-96 -1z"/>
<path d="M6277 1649 c-248 -35 -472 -258 -514 -514 -9 -49 -9 -168 -1 -212 40
-216 203 -411 403 -482 183 -64 388 -41 544 59 122 79 210 193 259 333 33 95
37 278 8 372 -81 261 -301 436 -566 448 -41 2 -101 0 -133 -4z"/>
</g>
</svg>
