<svg xmlns="http://www.w3.org/2000/svg" width="64.255" height="37.482" viewBox="0 0 64.255 37.482">
  <g id="hand-shake" transform="translate(0 -106.666)">
    <g id="Group_70" data-name="Group 70" transform="translate(0 106.666)">
      <g id="Group_69" data-name="Group 69">
        <path id="Path_69" data-name="Path 69" d="M15.528,109.611c-2.142-2.142-11.245-2.677-14.19-2.945a.984.984,0,0,0-.8.268A2.03,2.03,0,0,0,0,108v24.1a1.265,1.265,0,0,0,1.339,1.339H9.371a1.472,1.472,0,0,0,1.339-.8c0-.8,4.819-14.993,5.355-21.954A1.069,1.069,0,0,0,15.528,109.611Z" transform="translate(0 -106.666)" fill="#fff"/>
      </g>
    </g>
    <g id="Group_72" data-name="Group 72" transform="translate(22.723 112.288)">
      <g id="Group_71" data-name="Group 71">
        <path id="Path_70" data-name="Path 70" d="M202.514,155.215c-2.677-.8-5.087-1.874-7.229-2.677-4.819-2.142-6.961-1.071-11.245,3.213-1.874,1.874-3.213,4.551-2.945,5.622,0,.268,0,.268.535.535,1.339.535,3.213.8,5.087-2.142a1.391,1.391,0,0,1,1.071-.536,4.962,4.962,0,0,0,1.874-.535,13.053,13.053,0,0,1,1.874-.8h.535c.268,0,.8.268,1.071.268,1.339,1.339,3.748,3.213,6.158,5.355,3.748,2.945,7.5,6.158,9.371,8.567h.268C207.065,166.727,203.852,157.624,202.514,155.215Z" transform="translate(-181.061 -151.467)" fill="#fff"/>
      </g>
    </g>
    <g id="Group_74" data-name="Group 74" transform="translate(45.514 109.343)">
      <g id="Group_73" data-name="Group 73">
        <path id="Path_71" data-name="Path 71" d="M380.068,128a46.95,46.95,0,0,0-16.6,2.677l-.8.8a1.61,1.61,0,0,0,.268,1.071c1.606,2.677,6.961,17.4,7.764,21.15a1.779,1.779,0,0,0,1.339,1.071h8.032a1.265,1.265,0,0,0,1.339-1.339v-24.1A1.265,1.265,0,0,0,380.068,128Z" transform="translate(-362.666 -128)" fill="#fff"/>
      </g>
    </g>
    <g id="Group_76" data-name="Group 76" transform="translate(13.922 114.698)">
      <g id="Group_75" data-name="Group 75">
        <path id="Path_72" data-name="Path 72" d="M145.471,191.55c-1.071-2.41-5.622-5.89-9.638-9.1-2.142-1.874-4.284-3.481-5.89-4.819-.268.268-.8.268-.8.535A5.045,5.045,0,0,1,127,178.7c-2.142,2.677-4.819,3.748-7.764,2.677a3.165,3.165,0,0,1-2.41-2.41c-.535-2.677,1.874-6.425,3.748-8.3h-5.355a136.5,136.5,0,0,1-4.284,16.064,30.263,30.263,0,0,0,2.945,2.945c5.087,4.284,10.977,8.567,12.048,9.371a7.61,7.61,0,0,0,3.213,1.071h.8l-4.284-4.284a1.325,1.325,0,1,1,1.874-1.874l5.355,5.355c.536.535,1.071.268,1.606.268.8-.268,1.071-.8,1.339-1.606l-6.158-6.158a1.325,1.325,0,1,1,1.874-1.874l6.693,6.693a2.863,2.863,0,0,0,2.142,0c.268-.268.8-.535,1.071-1.071l-7.5-7.5a1.325,1.325,0,1,1,1.874-1.874l7.764,7.764a1.771,1.771,0,0,0,1.606-.268A1.818,1.818,0,0,0,145.471,191.55Z" transform="translate(-110.934 -170.667)" fill="#fff"/>
      </g>
    </g>
  </g>
</svg>
