<svg xmlns="http://www.w3.org/2000/svg" width="37.297" height="42.625" viewBox="0 0 37.297 42.625">
  <path id="calendar-check-solid" d="M36.3,13.32H1a1,1,0,0,1-1-1v-3a4,4,0,0,1,4-4h4V1a1,1,0,0,1,1-1h3.33a1,1,0,0,1,1,1V5.328H23.977V1a1,1,0,0,1,1-1h3.33a1,1,0,0,1,1,1V5.328h4a4,4,0,0,1,4,4v3A1,1,0,0,1,36.3,13.32ZM1,15.985H36.3a1,1,0,0,1,1,1V38.629a4,4,0,0,1-4,4H4a4,4,0,0,1-4-4V16.984A1,1,0,0,1,1,15.985Zm27.748,7.988L26.4,21.608a1,1,0,0,0-1.413-.006l-8.828,8.757L12.333,26.5a1,1,0,0,0-1.413-.006L8.556,28.84a1,1,0,0,0-.006,1.413l6.877,6.932a1,1,0,0,0,1.413.006l11.9-11.806a1,1,0,0,0,.006-1.413Z" transform="translate(0 0)" fill="#fff"/>
</svg>
