<svg xmlns="http://www.w3.org/2000/svg" width="37.26" height="42.625" viewBox="0 0 37.26 42.625">
  <g id="drink-beer-jar" transform="translate(60.71 -166)">
    <g id="Group_77" data-name="Group 77" transform="translate(-60.71 166)">
      <path id="Path_73" data-name="Path 73" d="M32.292,17.781H30.4a6.228,6.228,0,0,0-1.14.108V13.612a3.66,3.66,0,0,0-.069-.68,5.04,5.04,0,0,0-3.935-9.013,5.249,5.249,0,0,0-4.047-1.635,5.247,5.247,0,0,0-8.03-.757,5.211,5.211,0,0,0-.8-.254l-.341-.067a5.58,5.58,0,0,0-.792-.069,7,7,0,0,0-1.144,0H10v.008A5.754,5.754,0,0,0,5.148,4.54a4.733,4.733,0,0,0-1.816,8.545,3.637,3.637,0,0,0-.052.526v25.6a3.418,3.418,0,0,0,3.413,3.415h19.15a3.418,3.418,0,0,0,3.415-3.415V33.982a6.227,6.227,0,0,0,1.14.11h1.895a6.267,6.267,0,0,0,6.258-6.26V24.043A6.268,6.268,0,0,0,32.292,17.781ZM26.98,39.211a1.137,1.137,0,0,1-1.138,1.138H6.693a1.138,1.138,0,0,1-1.138-1.138v-25.6a1.138,1.138,0,0,1,1.138-1.138h19.15a1.137,1.137,0,0,1,1.138,1.138v25.6Zm1.013-28.23h0a3.375,3.375,0,0,0-2.15-.784H6.693a3.391,3.391,0,0,0-2.252.867A2.442,2.442,0,0,1,3.565,9.2,2.466,2.466,0,0,1,6.021,6.734l.932,0,.181-.913a3.346,3.346,0,0,1,3.02-2.4h1.254a2.973,2.973,0,0,1,1.433.487l.94.622.63-.934a2.987,2.987,0,0,1,2.477-1.321,2.957,2.957,0,0,1,2.687,1.712l.383.8.873-.179A3.011,3.011,0,0,1,23.9,5.854l.5.732.832-.306a2.765,2.765,0,0,1,2.76,4.7Zm7.144,16.852a2.848,2.848,0,0,1-2.845,2.845H30.4a2.819,2.819,0,0,1-1.14-.241v-9A2.819,2.819,0,0,1,30.4,21.2h1.895a2.848,2.848,0,0,1,2.845,2.845Z" transform="translate(-1.29 0)" fill="#fff"/>
      <rect id="Rectangle_20" data-name="Rectangle 20" width="19.154" height="22.567" transform="translate(5.403 16.644)" fill="#fff"/>
    </g>
  </g>
</svg>
