<svg xmlns="http://www.w3.org/2000/svg" xmlns:xlink="http://www.w3.org/1999/xlink" width="762" height="346.895" viewBox="0 0 762 346.895">
  <defs>
    <clipPath id="clip-path">
      <rect width="177.65" height="176.679" fill="none"/>
    </clipPath>
  </defs>
  <g id="Group_115" data-name="Group 115" transform="translate(-1158)">
    <rect id="Su" width="762" height="346.895" transform="translate(1158)" fill="#fff"/>
    <g id="SU-logo-col" transform="translate(1450 85.458)" clip-path="url(#clip-path)">
      <g id="Group_5" data-name="Group 5">
        <path id="Path_23" data-name="Path 23" d="M433.058,385.3l-.1-1.359-.194-1.262-.194-1.262-.485-1.262-.388-1.262-.582-1.165-.68-1.165-.777-.971-.874-1.068-.874-.874-.971-.874L425.777,372l-1.068-.68-1.165-.582-1.262-.485-1.262-.388-1.262-.194-1.262-.194-1.359-.1-1.262.1-1.359.194-1.262.194-1.262.388-1.165.485-1.165.582L408.5,372l-1.068.777-.971.874-.971.874-.777,1.068-.777.971-.68,1.165-.582,1.165-.485,1.262-.388,1.262-.194,1.262-.291,1.262v2.621l.291,1.262.194,1.359.388,1.262.485,1.165.582,1.165.68,1.165.777,1.068.777.971.971.971.971.874,1.068.68,1.165.68,1.165.582,1.165.485,1.262.388,1.262.291,1.359.1,1.262.1,1.359-.1,1.262-.1,1.262-.291,1.262-.388,1.262-.485,1.165-.582,1.068-.68,1.165-.68.971-.874.874-.971.874-.971.777-1.068.68-1.165.582-1.165.388-1.165.485-1.262.194-1.359.194-1.262Z" transform="translate(-313.945 -369.376)" fill="#c30" fill-rule="evenodd"/>
        <path id="Path_24" data-name="Path 24" d="M473.15,430.242l-2.136-2.136-2.33-2.039-2.33-1.942-2.427-1.844-2.427-1.747-2.621-1.65-2.524-1.553-2.718-1.456-2.718-1.359-2.718-1.165-2.815-1.165-2.912-1.068-2.815-.874-2.912-.777-3.009-.68-3.009-.582-3.009-.485-3.009-.388-3.009-.194-3.009-.1h-3.009l-3.009.1-3.106.194-3.009.388-3.009.485-2.912.582-3.009.68-2.912.777-2.912.874-2.815,1.068-2.815,1.165-2.815,1.165-2.718,1.359-2.621,1.456-2.621,1.553-2.524,1.65-2.524,1.747-2.427,1.844-2.33,1.942-2.233,2.039-2.136,2.136,12.232,12.232,1.942-1.844,2.039-1.747,2.136-1.65,2.136-1.65,2.233-1.456,2.33-1.456,2.427-1.262,2.33-1.165,2.524-1.165,2.524-.971,2.524-.777,2.621-.777,2.621-.68,2.621-.485L409.08,425l2.718-.291,2.718-.194,2.621-.1,2.718.1,2.718.194,2.621.291,2.718.388,2.621.485,2.621.68,2.621.777,2.524.777,2.524.971,2.427,1.165,2.427,1.165,2.33,1.262,2.33,1.456,2.233,1.456,2.233,1.65,2.039,1.65,2.039,1.747,1.942,1.844Z" transform="translate(-313.945 -369.376)" fill="#c30" fill-rule="evenodd"/>
        <path id="Path_25" data-name="Path 25" d="M491.595,520.038v-1.262l-.194-1.359-.291-1.262-.388-1.262-.388-1.165-.582-1.165-.68-1.165-.777-1.068-.874-.971-.874-.971-1.068-.874-.971-.68-1.165-.68-1.165-.582-1.262-.485-1.262-.388-1.262-.291-1.359-.1-1.262-.1-1.262.1-1.359.1-1.262.291-1.262.388-1.165.485-1.165.582-1.165.68-1.068.68-.971.874-.971.971-.874.971-.68,1.068-.68,1.165-.582,1.165-.485,1.165-.388,1.262-.291,1.262-.194,1.359V521.3l.194,1.359.291,1.262.388,1.262.485,1.262.582,1.165.68,1.068.68,1.068.874,1.068.971.874.971.874,1.068.777,1.165.68,1.165.582,1.165.388,1.262.388,1.262.291,1.359.194h2.524l1.359-.194,1.262-.291,1.262-.388,1.262-.388,1.165-.582,1.165-.68.971-.777,1.068-.874.874-.874.874-1.068.777-1.068.68-1.068.582-1.165.388-1.262.388-1.262.291-1.262.194-1.359Z" transform="translate(-313.945 -369.376)" fill="#c30" fill-rule="evenodd"/>
        <path id="Path_26" data-name="Path 26" d="M345.592,503.438l-.1-1.359-.1-1.262-.291-1.262-.388-1.262-.485-1.262-.582-1.165-.68-1.068-.777-1.068-.777-1.068-.971-.874-.971-.874-1.068-.777-1.068-.582-1.262-.68-1.165-.388-1.262-.388-1.262-.291-1.262-.194-1.359-.1-1.359.1-1.262.194-1.262.291-1.262.388-1.262.388-1.165.68-1.068.582-1.068.777-1.068.874-.874.874-.874,1.068-.777,1.068-.68,1.068-.485,1.165-.485,1.262-.388,1.262-.291,1.262-.194,1.262V504.7l.194,1.359.291,1.262.388,1.262.485,1.165.485,1.165.68,1.165.777,1.068.874.971.874.971,1.068.777,1.068.777,1.068.68,1.165.582,1.262.485,1.262.388,1.262.291,1.262.1,1.359.1,1.359-.1,1.262-.1,1.262-.291,1.262-.388,1.165-.485,1.262-.582,1.068-.68,1.068-.777.971-.777.971-.971.777-.971.777-1.068.68-1.165.582-1.165.485-1.165.388-1.262.291-1.262.1-1.359Z" transform="translate(-313.945 -369.376)" fill="#c30" fill-rule="evenodd"/>
        <path id="Path_27" data-name="Path 27" d="M400.731,514.116l-4.077,15.338-2.912-.874-2.912-.874-2.815-1.068-2.815-1.165-2.718-1.359-2.718-1.359-2.621-1.456-2.621-1.553L372,518l-2.427-1.747-2.427-1.844-2.33-2.039-2.233-2.039-2.136-2.136-2.039-2.136-2.039-2.33-1.844-2.33-1.844-2.524-1.747-2.427-1.553-2.621-1.553-2.621-1.359-2.718-1.359-2.718-1.165-2.718-1.165-2.815-.971-2.912-.874-2.912-.777-2.912-.582-3.009-.582-2.912-.388-3.009-.388-3.009-.194-3.106-.1-3.009.1-3.009.1-3.009.291-3.009.388-3.009.485-3.009.68-3.009.68-2.912,16.891,4.466-.68,2.621-.485,2.621-.485,2.718-.194,2.718-.194,2.621-.1,2.718.1,2.718.194,2.621.194,2.718.485,2.621.485,2.621.68,2.718.68,2.524.874,2.621.971,2.427,1.165,2.524,1.165,2.427,1.262,2.33,1.456,2.33,1.456,2.233,1.553,2.136,1.747,2.136,1.747,2.039,1.844,1.942,1.942,1.844,2.039,1.747,2.136,1.747,2.136,1.553,2.233,1.553,2.33,1.359,2.427,1.262,2.33,1.262,2.524,1.068,2.524.971,2.524.874,2.621.777-4.563,16.794Z" transform="translate(-313.945 -369.376)" fill="#c30" fill-rule="evenodd"/>
        <path id="Path_28" data-name="Path 28" d="M408.886,546.055l2.912-.777,2.912-.971,2.815-1.068,2.718-1.165,2.815-1.262,2.718-1.456L428.4,537.9l2.621-1.553,2.427-1.65,2.524-1.844,2.427-1.844,2.233-1.942,2.33-2.039,2.136-2.136,2.039-2.233,2.039-2.33,1.844-2.33,1.844-2.427,1.747-2.524,1.553-2.621,1.553-2.524,1.359-2.718,1.359-2.815,1.165-2.718,1.165-2.815.971-2.912.874-2.912.777-2.912.68-2.912.485-3.009.388-3.009.291-3.009.291-3.009.1-3.106-.1-3.009-.1-3.009-.291-3.009-.388-3.009L466.161,455l-.582-3.009-.777-2.912-16.794,4.563.68,2.524.485,2.718.485,2.621.291,2.718.1,2.621.1,2.718-.1,2.718-.1,2.718-.291,2.621-.485,2.718-.485,2.621-.68,2.621-.68,2.621-.874,2.524-.971,2.524-1.165,2.427-1.165,2.427-1.262,2.33-1.456,2.33-1.456,2.233-1.553,2.233-1.747,2.039-1.747,2.039-1.844,1.941-1.942,1.844-2.039,1.844-2.136,1.65-2.136,1.553-2.33,1.553-2.233,1.359-2.33,1.262-2.427,1.262-2.524,1.068-2.524.971-2.524.874-2.621.777Z" transform="translate(-313.945 -369.376)" fill="#c30" fill-rule="evenodd"/>
      </g>
    </g>
  </g>
</svg>
