<svg xmlns="http://www.w3.org/2000/svg" width="21.967" height="25.13" viewBox="0 0 21.967 25.13">
  <g id="drink-beer-jar" transform="translate(63.71 -166)">
    <g id="Group_77" data-name="Group 77" transform="translate(-63.71 166)">
      <path id="Path_73" data-name="Path 73" d="M19.568,10.483H18.451a3.672,3.672,0,0,0-.672.064V8.025a2.158,2.158,0,0,0-.04-.4,2.971,2.971,0,0,0-2.32-5.314,3.1,3.1,0,0,0-2.386-.964A3.093,3.093,0,0,0,8.3.9a3.072,3.072,0,0,0-.47-.15l-.2-.039a3.29,3.29,0,0,0-.467-.04,4.125,4.125,0,0,0-.674,0h-.06v0a3.392,3.392,0,0,0-2.862,2,2.791,2.791,0,0,0-1.07,5.038,2.144,2.144,0,0,0-.031.31V23.117a2.015,2.015,0,0,0,2.012,2.013h11.29a2.015,2.015,0,0,0,2.013-2.013V20.035a3.671,3.671,0,0,0,.672.065h1.117a3.7,3.7,0,0,0,3.689-3.691V14.175A3.7,3.7,0,0,0,19.568,10.483ZM16.436,23.117a.67.67,0,0,1-.671.671H4.475a.671.671,0,0,1-.671-.671V8.025a.671.671,0,0,1,.671-.671h11.29a.67.67,0,0,1,.671.671V23.117Zm.6-16.643h0a1.99,1.99,0,0,0-1.268-.462H4.475a2,2,0,0,0-1.328.511,1.439,1.439,0,0,1-.516-1.1A1.454,1.454,0,0,1,4.079,3.97l.549,0,.107-.538a1.973,1.973,0,0,1,1.78-1.412h.739A1.753,1.753,0,0,1,8.1,2.3l.554.367.372-.551a1.761,1.761,0,0,1,1.46-.779A1.743,1.743,0,0,1,12.07,2.35l.226.475.515-.105a1.775,1.775,0,0,1,1.812.732l.293.432.49-.18a1.63,1.63,0,0,1,1.627,2.771Zm4.212,9.935a1.679,1.679,0,0,1-1.677,1.677H18.451a1.662,1.662,0,0,1-.672-.142v-5.3a1.662,1.662,0,0,1,.672-.142h1.117a1.679,1.679,0,0,1,1.677,1.677Z" transform="translate(-1.29 0)" fill="#fff"/>
      <rect id="Rectangle_20" data-name="Rectangle 20" width="11.293" height="13.305" transform="translate(3.185 9.813)" fill="#fff"/>
    </g>
  </g>
</svg>
