<svg xmlns="http://www.w3.org/2000/svg" width="24" height="24" viewBox="0 0 24 24">
  <path id="network" d="M21.382,0a2.618,2.618,0,0,0-2.3,3.866L14.791,8.155a3.468,3.468,0,0,0-4.274,0L7.171,4.808a1.722,1.722,0,0,0,.247-.881A1.745,1.745,0,1,0,5.673,5.673a1.722,1.722,0,0,0,.881-.247L9.9,8.772a3.469,3.469,0,0,0,0,4.274L4.374,18.573a2.592,2.592,0,1,0,.545.689l5.6-5.6a3.47,3.47,0,0,0,1.7.706V18.8a2.618,2.618,0,1,0,.873,0V14.369a3.47,3.47,0,0,0,1.7-.706l3.346,3.346a1.721,1.721,0,0,0-.248.881,1.745,1.745,0,1,0,1.745-1.745,1.722,1.722,0,0,0-.881.247l-3.346-3.346a3.469,3.469,0,0,0,0-4.274l4.217-4.217A2.616,2.616,0,1,0,21.382,0Z" transform="translate(0)" fill="#fff"/>
</svg>
