<svg xmlns="http://www.w3.org/2000/svg" width="27.536" height="21.957" viewBox="0 0 27.536 21.957">
  <path id="cogs-solid" d="M22.026,8.326l-.353.615a.532.532,0,0,1-.65.232,4.755,4.755,0,0,1-1.381-.8.534.534,0,0,1-.12-.676l.353-.615A3.714,3.714,0,0,1,19.191,5.9h-.71a.531.531,0,0,1-.525-.443,4.848,4.848,0,0,1,0-1.6.535.535,0,0,1,.525-.448h.71a3.714,3.714,0,0,1,.684-1.179l-.353-.615a.529.529,0,0,1,.12-.676,4.812,4.812,0,0,1,1.381-.8.532.532,0,0,1,.65.232l.353.615a3.824,3.824,0,0,1,1.364,0l.353-.615a.532.532,0,0,1,.65-.232,4.755,4.755,0,0,1,1.381.8.534.534,0,0,1,.12.676l-.353.615a3.714,3.714,0,0,1,.684,1.179h.71a.531.531,0,0,1,.525.443,4.848,4.848,0,0,1,0,1.6.535.535,0,0,1-.525.448h-.71a3.714,3.714,0,0,1-.684,1.179l.353.615a.529.529,0,0,1-.12.676,4.812,4.812,0,0,1-1.381.8.532.532,0,0,1-.65-.232l-.353-.615A3.824,3.824,0,0,1,22.026,8.326ZM21.574,5.8a1.607,1.607,0,0,0,2.272-2.272A1.607,1.607,0,0,0,21.574,5.8Zm-4.961,6.622,1.45.723a1.035,1.035,0,0,1,.452,1.252,10.158,10.158,0,0,1-1.833,2.831,1.029,1.029,0,0,1-1.3.228l-1.252-.723a7.392,7.392,0,0,1-2.362,1.364V19.54a1.03,1.03,0,0,1-.848,1.015,9.677,9.677,0,0,1-3.266,0A1.034,1.034,0,0,1,6.79,19.54V18.094A7.472,7.472,0,0,1,4.427,16.73l-1.252.719a1.03,1.03,0,0,1-1.3-.228A10.143,10.143,0,0,1,.056,14.393a1.038,1.038,0,0,1,.452-1.252l1.433-.723a7.454,7.454,0,0,1,0-2.728L.507,8.963A1.026,1.026,0,0,1,.056,7.715,10.1,10.1,0,0,1,1.871,4.884a1.029,1.029,0,0,1,1.3-.228l1.252.723A7.392,7.392,0,0,1,6.79,4.015V2.565a1.025,1.025,0,0,1,.843-1.011,9.813,9.813,0,0,1,3.27,0,1.034,1.034,0,0,1,.861,1.015V4.01a7.472,7.472,0,0,1,2.362,1.364l1.252-.723a1.03,1.03,0,0,1,1.3.228,10.089,10.089,0,0,1,1.812,2.831,1.028,1.028,0,0,1-.43,1.252l-1.45.723A7.478,7.478,0,0,1,16.613,12.418Zm-5.06.908C14.1,10.013,10.318,6.231,7,8.778,4.457,12.091,8.24,15.873,11.553,13.326Zm10.473,7.861-.353.615a.532.532,0,0,1-.65.232,4.755,4.755,0,0,1-1.381-.8.534.534,0,0,1-.12-.676l.353-.615a3.714,3.714,0,0,1-.684-1.179h-.71a.531.531,0,0,1-.525-.443,4.848,4.848,0,0,1,0-1.6.535.535,0,0,1,.525-.448h.71a3.714,3.714,0,0,1,.684-1.179l-.353-.615a.529.529,0,0,1,.12-.676,4.812,4.812,0,0,1,1.381-.8.532.532,0,0,1,.65.232l.353.615a3.824,3.824,0,0,1,1.364,0l.353-.615a.532.532,0,0,1,.65-.232,4.755,4.755,0,0,1,1.381.8.534.534,0,0,1,.12.676l-.353.615a3.714,3.714,0,0,1,.684,1.179h.71a.531.531,0,0,1,.525.443,4.848,4.848,0,0,1,0,1.6.535.535,0,0,1-.525.448h-.71a3.714,3.714,0,0,1-.684,1.179l.353.615a.529.529,0,0,1-.12.676,4.812,4.812,0,0,1-1.381.8.532.532,0,0,1-.65-.232l-.353-.615A3.824,3.824,0,0,1,22.026,21.188Zm-.452-2.534a1.607,1.607,0,0,0,2.272-2.272A1.607,1.607,0,0,0,21.574,18.653Z" transform="translate(0.009 -0.112)" fill="#fff"/>
</svg>
