<svg xmlns="http://www.w3.org/2000/svg" width="18.922" height="21.625" viewBox="0 0 18.922 21.625">
  <path id="calendar-check-solid" d="M18.415,6.758H.507A.507.507,0,0,1,0,6.251V4.731A2.027,2.027,0,0,1,2.027,2.7H4.055V.507A.507.507,0,0,1,4.562,0H6.251a.507.507,0,0,1,.507.507V2.7h5.406V.507A.507.507,0,0,1,12.671,0h1.689a.507.507,0,0,1,.507.507V2.7h2.027a2.027,2.027,0,0,1,2.027,2.027V6.251A.507.507,0,0,1,18.415,6.758ZM.507,8.11H18.415a.507.507,0,0,1,.507.507V19.6a2.027,2.027,0,0,1-2.027,2.027H2.027A2.027,2.027,0,0,1,0,19.6V8.616A.507.507,0,0,1,.507,8.11Zm14.077,4.053-1.19-1.2a.507.507,0,0,0-.717,0L8.2,15.4,6.257,13.445a.507.507,0,0,0-.717,0l-1.2,1.19a.507.507,0,0,0,0,.717l3.489,3.517a.507.507,0,0,0,.717,0l6.038-5.989a.507.507,0,0,0,0-.717Z" transform="translate(0)" fill="#fff"/>
</svg>
