<svg xmlns="http://www.w3.org/2000/svg" width="22.05" height="21.931" viewBox="0 0 22.05 21.931">
  <g id="edit" transform="translate(0 -0.269)">
    <path id="Path_46" data-name="Path 46" d="M21.417,31.408a.578.578,0,0,0-.578.578v5.132a1.736,1.736,0,0,1-1.734,1.734H2.89a1.736,1.736,0,0,1-1.734-1.734V22.058A1.736,1.736,0,0,1,2.89,20.324H8.021a.578.578,0,1,0,0-1.156H2.89A2.893,2.893,0,0,0,0,22.058v15.06a2.893,2.893,0,0,0,2.89,2.89H19.105A2.893,2.893,0,0,0,22,37.118V31.986A.578.578,0,0,0,21.417,31.408Zm0,0" transform="translate(0 -17.807)" fill="#fff"/>
    <path id="Path_47" data-name="Path 47" d="M156.367,40.767l8.438-8.439,2.721,2.721-8.438,8.439Zm0,0" transform="translate(-147.33 -30.207)" fill="#fff"/>
    <path id="Path_48" data-name="Path 48" d="M132.543,200.226l3.007-.833-2.174-2.174Zm0,0" transform="translate(-124.883 -185.568)" fill="#fff"/>
    <path id="Path_49" data-name="Path 49" d="M319.183.691a1.447,1.447,0,0,0-2.043,0l-.613.613,2.721,2.721.613-.613a1.446,1.446,0,0,0,0-2.043Zm0,0" transform="translate(-298.234)" fill="#fff"/>
  </g>
</svg>
