<svg id="Group_8" data-name="Group 8" xmlns="http://www.w3.org/2000/svg" width="26.98" height="21.471" viewBox="0 0 26.98 21.471">
  <path id="Path_34" data-name="Path 34" d="M75.337,120.939l-9.622,7.933a.227.227,0,0,1-.008.05.229.229,0,0,0-.008.05V137a1.087,1.087,0,0,0,1.071,1.071H73.2V131.65H77.48v6.427h6.426A1.088,1.088,0,0,0,84.977,137v-8.033a.235.235,0,0,0-.017-.1Z" transform="translate(-61.847 -116.605)" fill="#fff"/>
  <path id="Path_35" data-name="Path 35" d="M26.794,57.454l-3.665-3.046V47.58a.516.516,0,0,0-.536-.535H19.38a.515.515,0,0,0-.536.535v3.263l-4.083-3.414a2.076,2.076,0,0,0-2.543,0L.185,57.454a.486.486,0,0,0-.184.36.542.542,0,0,0,.117.393l1.038,1.238a.571.571,0,0,0,.351.184.622.622,0,0,0,.4-.117l11.58-9.656L25.07,59.512a.516.516,0,0,0,.351.117h.05a.572.572,0,0,0,.351-.184l1.038-1.238a.542.542,0,0,0,.117-.394A.488.488,0,0,0,26.794,57.454Z" transform="translate(0.001 -46.994)" fill="#fff"/>
</svg>
