<svg xmlns="http://www.w3.org/2000/svg" xmlns:xlink="http://www.w3.org/1999/xlink" width="21.429" height="21.312" viewBox="0 0 21.429 21.312">
  <defs>
    <clipPath id="clip-path">
      <rect width="21.429" height="21.311" fill="none"/>
    </clipPath>
  </defs>
  <g id="SU-logo-col" transform="translate(0)" clip-path="url(#clip-path)">
    <g id="Group_5" data-name="Group 5">
      <path id="Path_23" data-name="Path 23" d="M405.143,371.3l-.012-.164-.023-.152-.023-.152-.059-.152-.047-.152-.07-.141-.082-.141-.094-.117-.105-.129-.105-.105-.117-.105-.141-.094-.129-.082-.141-.07-.152-.059-.152-.047-.152-.023-.152-.023-.164-.012-.152.012-.164.023-.152.023-.152.047-.141.059-.141.07-.141.082-.129.094-.117.105-.117.105-.094.129-.094.117-.082.141-.07.141-.059.152-.047.152-.023.152-.035.152v.316l.035.152.023.164.047.152.059.141.07.141.082.141.094.129.094.117.117.117.117.105.129.082.141.082.141.07.141.059.152.047.152.035.164.012.152.012.164-.012.152-.012.152-.035.152-.047.152-.059.141-.07.129-.082.141-.082.117-.105.105-.117.105-.117.094-.129.082-.141.07-.141.047-.141.059-.152.023-.164.023-.152Z" transform="translate(-390.775 -369.376)" fill="#fff" fill-rule="evenodd"/>
      <path id="Path_24" data-name="Path 24" d="M374.722,409.84l-.258-.258-.281-.246-.281-.234-.293-.223-.293-.211-.316-.2-.3-.187-.328-.176-.328-.164-.328-.141-.34-.141-.351-.129-.34-.105-.351-.094-.363-.082-.363-.07-.363-.059-.363-.047-.363-.023-.363-.012h-.363l-.363.012-.375.023-.363.047-.363.059-.351.07-.363.082-.351.094-.351.105-.34.129-.34.141-.34.141-.328.164-.316.176-.316.187-.3.2-.3.211-.293.223-.281.234-.269.246-.258.258,1.475,1.475.234-.223.246-.211.258-.2.258-.2.269-.176.281-.176.293-.152.281-.141.3-.141.3-.117.3-.094.316-.094.316-.082.316-.059.316-.047.328-.035.328-.023.316-.012.328.012.328.023.316.035.328.047.316.059.316.082.316.094.3.094.3.117.293.141.293.141.281.152.281.176.269.176.269.2.246.2.246.211.234.223Z" transform="translate(-355.519 -402.498)" fill="#fff" fill-rule="evenodd"/>
      <path id="Path_25" data-name="Path 25" d="M463.765,506.123v-.152l-.023-.164-.035-.152-.047-.152-.047-.141-.07-.141-.082-.141-.094-.129-.105-.117-.105-.117-.129-.105-.117-.082-.141-.082-.141-.07-.152-.059-.152-.047-.152-.035-.164-.012-.152-.012-.152.012-.164.012-.152.035-.152.047-.141.059-.141.07-.141.082-.129.082-.117.105-.117.117-.105.117-.082.129-.082.141-.07.141-.059.141-.047.152-.035.152-.023.164v.3l.023.164.035.152.047.152.059.152.07.141.082.129.082.129.105.129.117.105.117.105.129.094.141.082.141.07.141.047.152.047.152.035.164.023h.3l.164-.023.152-.035.152-.047.152-.047.141-.07.141-.082.117-.094.129-.105.105-.105.105-.129.094-.129.082-.129.07-.141.047-.152.047-.152.035-.152.023-.164Z" transform="translate(-442.336 -487.95)" fill="#fff" fill-rule="evenodd"/>
      <path id="Path_26" data-name="Path 26" d="M317.762,489.438l-.012-.164-.012-.152-.035-.152-.047-.152-.059-.152-.07-.141-.082-.129-.094-.129-.094-.129-.117-.105-.117-.105-.129-.094-.129-.07-.152-.082-.141-.047-.152-.047-.152-.035-.152-.023-.164-.012-.164.012-.152.023-.152.035-.152.047-.152.047-.141.082-.129.07-.129.094-.129.105-.105.105-.105.129-.094.129-.082.129-.059.141-.059.152-.047.152-.035.152-.023.152v.316l.023.164.035.152.047.152.059.141.059.14.082.141.094.129.105.117.105.117.129.094.129.094.129.082.141.07.152.059.152.047.152.035.152.012.164.012.164-.012.152-.012.152-.035.152-.047.141-.059.152-.07.129-.082.129-.094.117-.094.117-.117.094-.117.094-.129.082-.141.07-.14.059-.141.047-.152.035-.152.012-.164Z" transform="translate(-313.945 -473.267)" fill="#fff" fill-rule="evenodd"/>
      <path id="Path_27" data-name="Path 27" d="M345.5,442.323l-.492,1.85-.351-.105-.351-.105-.34-.129-.34-.141-.328-.164-.328-.164-.316-.176-.316-.187-.3-.211-.293-.211-.293-.223-.281-.246-.269-.246-.258-.258-.246-.258-.246-.281-.222-.281-.223-.3-.211-.293-.187-.316-.187-.316-.164-.328-.164-.328-.141-.328-.14-.34-.117-.351-.105-.351-.094-.351-.07-.363-.07-.351-.047-.363-.047-.363-.023-.375-.012-.363.012-.363.012-.363.035-.363.047-.363.059-.363.082-.363.082-.351,2.037.539-.082.316-.059.316-.059.328-.023.328-.023.316-.012.328.012.328.023.316.023.328.059.316.059.316.082.328.082.3.105.316.117.293.141.3.141.293.152.281.176.281.176.269.187.258.211.258.211.246.222.234.234.223.246.211.258.211.258.187.269.187.281.164.293.152.281.152.3.129.3.117.3.105.316.094-.55,2.026Z" transform="translate(-335.031 -424.864)" fill="#fff" fill-rule="evenodd"/>
      <path id="Path_28" data-name="Path 28" d="M404.873,460.773l.351-.094.351-.117.34-.129.328-.141.34-.152.328-.176.316-.176.316-.187.293-.2.3-.223.293-.222.269-.234.281-.246.258-.258.246-.269.246-.281.223-.281.222-.293.211-.3.187-.316.187-.3.164-.328.164-.34.141-.328.141-.34.117-.351.105-.351.094-.351.082-.351.059-.363.047-.363.035-.363.035-.363.012-.375-.012-.363-.012-.363-.035-.363-.047-.363-.07-.363-.07-.363-.094-.351-2.026.55.082.3.059.328.059.316.035.328.012.316.012.328-.012.328-.012.328-.035.316-.059.328-.059.316-.082.316-.082.316-.105.3-.117.3-.141.293-.141.293-.152.281-.176.281-.176.269-.187.269-.211.246-.211.246-.222.234-.234.222-.246.223-.258.2-.258.187-.281.187-.269.164-.281.152-.293.152-.3.129-.3.117-.3.105-.316.094Z" transform="translate(-393.421 -439.462)" fill="#fff" fill-rule="evenodd"/>
    </g>
  </g>
</svg>
