<svg id="instagram" xmlns="http://www.w3.org/2000/svg" width="23.9" height="23.9" viewBox="0 0 23.9 23.9">
  <path id="Path_31" data-name="Path 31" d="M31.107,23.88h-5.7a1.651,1.651,0,0,0-1.65,1.65v5.7a1.652,1.652,0,0,0,1.65,1.65h5.7a1.652,1.652,0,0,0,1.65-1.65v-5.7A1.651,1.651,0,0,0,31.107,23.88Zm-2.849,7.461a2.962,2.962,0,1,1,2.962-2.962A2.965,2.965,0,0,1,28.258,31.341Zm3.057-5.312a.7.7,0,1,1,.7-.7A.7.7,0,0,1,31.315,26.029Z" transform="translate(-16.308 -16.391)" fill="#6a453b"/>
  <path id="Path_32" data-name="Path 32" d="M38.559,36.971a1.71,1.71,0,1,0,1.71,1.71A1.713,1.713,0,0,0,38.559,36.971Z" transform="translate(-26.609 -26.698)" fill="#6a453b"/>
  <path id="Path_33" data-name="Path 33" d="M11.95,0A11.95,11.95,0,1,0,23.9,11.95,11.95,11.95,0,0,0,11.95,0Zm7.188,15.544a3.63,3.63,0,0,1-3.627,3.627H8.388a3.631,3.631,0,0,1-3.627-3.627V8.421A3.631,3.631,0,0,1,8.388,4.794h7.123a3.631,3.631,0,0,1,3.627,3.627Z" fill="#6a453b"/>
</svg>
