<svg xmlns="http://www.w3.org/2000/svg" width="213.092" height="63.798" viewBox="0 0 213.092 63.798">
  <g id="SU-logo-side-col" transform="translate(-833 -3805)">
    <path id="Path_102" data-name="Path 102" d="M3021.14,4207.112h1.156a3.4,3.4,0,0,0,1.192,1.717,2.964,2.964,0,0,0,1.928.631,2.839,2.839,0,0,0,2.033-.735,2.361,2.361,0,0,0,.771-1.824,1.959,1.959,0,0,0-.561-1.437,9.913,9.913,0,0,0-2.7-1.4c-.071-.036-.211-.106-.386-.175a9.127,9.127,0,0,1-2.348-1.228,3.647,3.647,0,0,1-.911-1.261,3.852,3.852,0,0,1,.876-4.312,4.308,4.308,0,0,1,3.085-1.087,7.355,7.355,0,0,1,2.138.315,8.074,8.074,0,0,1,1.928.912v2.664h-1.052a3.772,3.772,0,0,0-1.122-1.822,3.123,3.123,0,0,0-1.893-.6,2.529,2.529,0,0,0-1.683.6,2.055,2.055,0,0,0-.7,1.542c0,1.086.912,1.927,2.664,2.593.281.1.491.176.631.246a7.184,7.184,0,0,1,2.945,1.752,3.637,3.637,0,0,1,.876,2.525,4.145,4.145,0,0,1-1.227,3.119,4.649,4.649,0,0,1-3.365,1.192,7.565,7.565,0,0,1-2.174-.316,8.62,8.62,0,0,1-2.1-.947Z" transform="translate(-2111.303 -377.294)" fill="#fff" fill-rule="evenodd"/>
    <path id="Path_103" data-name="Path 103" d="M3326.7,4248.356a3.953,3.953,0,0,1-2.384-.457,3.9,3.9,0,0,1-.455-2.419v-6.415H3322V4237.8h1.858V4235h1.752v2.8h2.384v1.262h-2.384v6.52c0,.7.1,1.157.281,1.3a2.58,2.58,0,0,0,1.332.211h.771v1.263Z" transform="translate(-2401.752 -414.927)" fill="#fff" fill-rule="evenodd"/>
    <path id="Path_104" data-name="Path 104" d="M3555.887,4325.551h-1.858v-.737l-.177-.035a3.727,3.727,0,0,1-2.7,1.052,2.9,2.9,0,0,1-1.788-.527,3.025,3.025,0,0,1-1.121-1.472,2.974,2.974,0,0,1-.175-.911,16.231,16.231,0,0,1-.071-2.173V4315h1.788v6.415a4.242,4.242,0,0,0,.42,2.277,1.636,1.636,0,0,0,1.472.632,2.6,2.6,0,0,0,1.122-.245,5.119,5.119,0,0,0,1.262-.771V4315h1.823Z" transform="translate(-2619.829 -492.123)" fill="#fff" fill-rule="evenodd"/>
    <path id="Path_105" data-name="Path 105" d="M3850.378,4209.757h-1.789v-.807l-.21-.105a5.372,5.372,0,0,1-1.191.947,3.321,3.321,0,0,1-1.3.28,3.265,3.265,0,0,1-2.839-1.507,8.389,8.389,0,0,1,0-8.132,3.283,3.283,0,0,1,2.8-1.542,2.831,2.831,0,0,1,1.3.316,4.431,4.431,0,0,1,1.227.876l.21-.035V4195h1.789v14.758m-1.789-2.349v-5.854a3.876,3.876,0,0,0-1.157-.806,2.375,2.375,0,0,0-1.086-.28,2.086,2.086,0,0,0-1.858,1.017,7.436,7.436,0,0,0,0,5.995,2.088,2.088,0,0,0,1.858,1.016,2.645,2.645,0,0,0,1.122-.28A5.212,5.212,0,0,0,3848.589,4207.408Z" transform="translate(-2903.523 -376.329)" fill="#fff" fill-rule="evenodd"/>
    <path id="Path_106" data-name="Path 106" d="M4158.413,4311.784v.315h-6.555a4.057,4.057,0,0,0,.771,2.629,2.8,2.8,0,0,0,2.208.876,3.885,3.885,0,0,0,1.437-.281,4.977,4.977,0,0,0,1.4-.912h.736v1.788a11.523,11.523,0,0,1-1.928.771,6.917,6.917,0,0,1-1.682.21,4.427,4.427,0,0,1-3.576-1.4,6.061,6.061,0,0,1-1.227-4.066,6.608,6.608,0,0,1,1.192-4.208,4.049,4.049,0,0,1,3.294-1.506,3.651,3.651,0,0,1,2.84,1.156,4.344,4.344,0,0,1,1.086,3.12v1.508m-1.753-1.227a4.675,4.675,0,0,0-.525-2.524,2.016,2.016,0,0,0-1.718-.771,2.156,2.156,0,0,0-1.858.912,4.8,4.8,0,0,0-.7,2.628l4.8.036Z" transform="translate(-3200.727 -483.438)" fill="#fff" fill-rule="evenodd"/>
    <path id="Path_107" data-name="Path 107" d="M4457,4306.315h1.857v.7l.176.035a5.065,5.065,0,0,1,1.263-.807,4.566,4.566,0,0,1,1.437-.245,2.85,2.85,0,0,1,2.348,1.017,4.431,4.431,0,0,1,.807,2.91v6.94h-1.753v-6.415a4.41,4.41,0,0,0-.456-2.313,1.638,1.638,0,0,0-1.472-.632,3.423,3.423,0,0,0-1.158.247,7.577,7.577,0,0,0-1.226.771v8.342H4457Z" transform="translate(-3496.966 -483.438)" fill="#fff" fill-rule="evenodd"/>
    <path id="Path_108" data-name="Path 108" d="M4742.7,4248.356a2.182,2.182,0,0,1-2.874-2.875v-6.415H4738V4237.8h1.823V4235h1.789v2.8h2.383v1.262h-2.383v6.52c0,.7.1,1.157.279,1.3a2.505,2.505,0,0,0,1.3.211h.807v1.263Z" transform="translate(-3768.115 -414.927)" fill="#fff" fill-rule="evenodd"/>
    <path id="Path_109" data-name="Path 109" d="M4942,4316.342h.947a2.666,2.666,0,0,0,1.016,1.051,3.485,3.485,0,0,0,1.473.351,2.287,2.287,0,0,0,1.507-.492,1.463,1.463,0,0,0,.561-1.226c0-.771-.807-1.438-2.384-1.928l-.175-.07a4.668,4.668,0,0,1-2.173-1.192,2.407,2.407,0,0,1-.665-1.788,2.662,2.662,0,0,1,1.016-2.208,4.115,4.115,0,0,1,2.735-.841,7.042,7.042,0,0,1,1.437.175,8.948,8.948,0,0,1,1.577.456v2.068h-.806a3.54,3.54,0,0,0-1.017-1.122,2.707,2.707,0,0,0-1.4-.385,1.821,1.821,0,0,0-1.227.456,1.408,1.408,0,0,0-.527,1.087,1.472,1.472,0,0,0,.457,1.085,7.263,7.263,0,0,0,2.1.842,4.451,4.451,0,0,1,2.138,1.191,2.808,2.808,0,0,1,.7,1.893,3.2,3.2,0,0,1-1.018,2.419,3.88,3.88,0,0,1-2.7.911,8.7,8.7,0,0,1-2-.209,5.263,5.263,0,0,1-1.579-.6Z" transform="translate(-3964.964 -485.367)" fill="#fff" fill-rule="evenodd"/>
    <path id="Path_110" data-name="Path 110" d="M5213,4195h1.788v7.081c0,.352,0,.737-.035,1.087s-.07.7-.105,1.017l.422.209c.21-.385.385-.7.56-.98s.351-.526.457-.737l2.524-3.47h2.208l-3.716,4.452v.246a5.066,5.066,0,0,1,.912,1.227,1.359,1.359,0,0,1,.1.14l2.734,4.487h-2.278l-2.488-5.083h-.422l-.876,1.017v4.065H5213Z" transform="translate(-4226.464 -376.329)" fill="#fff" fill-rule="evenodd"/>
    <path id="Path_111" data-name="Path 111" d="M5469.959,4166.353a4.132,4.132,0,0,1-1.3.911,4.457,4.457,0,0,1-1.542.28,2.963,2.963,0,0,1-2.245-.876,3.121,3.121,0,0,1-.875-2.313,2.753,2.753,0,0,1,1.087-2.349,9.114,9.114,0,0,1,3.786-1.367l1.086-.211v-.841a1.421,1.421,0,0,0-.526-1.191,2.624,2.624,0,0,0-1.578-.421,2.842,2.842,0,0,0-1.3.315,3.932,3.932,0,0,0-1.121.947h-.841v-2.14a11.412,11.412,0,0,1,1.613-.454,11.846,11.846,0,0,1,1.542-.14,4.487,4.487,0,0,1,3.014.876,3.4,3.4,0,0,1,.982,2.7v7.221h-1.788v-.946m0-4.7a9.687,9.687,0,0,0-3.155,1.018,1.813,1.813,0,0,0-.875,1.577,1.668,1.668,0,0,0,.525,1.262,1.992,1.992,0,0,0,1.4.525,2.872,2.872,0,0,0,1.052-.245,3.717,3.717,0,0,0,1.052-.7v-3.437m1.472-10.655v.63a13.023,13.023,0,0,0-1.928,1.264,10.32,10.32,0,0,0-1.578,1.437H5466.7v-.422a7.91,7.91,0,0,0,1.331-1.331,10.47,10.47,0,0,0,1.087-1.578Z" transform="translate(-4468.667 -333.87)" fill="#fff" fill-rule="evenodd"/>
    <path id="Path_112" data-name="Path 112" d="M5931.886,4325.551h-1.822v-.737l-.175-.035a3.647,3.647,0,0,1-1.262.806,3.754,3.754,0,0,1-1.437.246,2.771,2.771,0,0,1-1.788-.527,3.306,3.306,0,0,1-1.156-1.472,4.62,4.62,0,0,1-.175-.911c-.035-.385-.071-1.122-.071-2.173V4315h1.789v6.415a4.621,4.621,0,0,0,.42,2.277,1.747,1.747,0,0,0,1.508.632,2.716,2.716,0,0,0,1.122-.245,4.421,4.421,0,0,0,1.227-.771V4315h1.822Z" transform="translate(-4912.541 -492.123)" fill="#fff" fill-rule="evenodd"/>
    <path id="Path_113" data-name="Path 113" d="M6233,4306.315h1.859v.7l.174.035a5.094,5.094,0,0,1,1.263-.807,4.558,4.558,0,0,1,1.437-.245,2.852,2.852,0,0,1,2.349,1.017,4.645,4.645,0,0,1,.806,2.91v6.94h-1.752v-6.415a4.408,4.408,0,0,0-.457-2.313,1.635,1.635,0,0,0-1.473-.632,3.41,3.41,0,0,0-1.156.247,6.292,6.292,0,0,0-1.227.771v8.342H6233Z" transform="translate(-5210.709 -483.438)" fill="#fff" fill-rule="evenodd"/>
    <path id="Path_114" data-name="Path 114" d="M6540,4195h2.312v1.753H6540V4195m1.962,4.207v10.551h-1.821v-10.551Z" transform="translate(-5506.95 -376.329)" fill="#fff" fill-rule="evenodd"/>
    <path id="Path_115" data-name="Path 115" d="M6680.413,4311.784v.315h-6.521a4.057,4.057,0,0,0,.736,2.629,2.8,2.8,0,0,0,2.209.876,4.067,4.067,0,0,0,1.471-.281,5.441,5.441,0,0,0,1.369-.912h.735v1.788a12.644,12.644,0,0,1-1.893.771,6.922,6.922,0,0,1-1.683.21,4.552,4.552,0,0,1-3.611-1.4,6.059,6.059,0,0,1-1.227-4.066,6.607,6.607,0,0,1,1.227-4.208,3.981,3.981,0,0,1,3.26-1.506,3.728,3.728,0,0,1,2.875,1.156,4.488,4.488,0,0,1,1.051,3.12v1.508m-1.752-1.227a4.663,4.663,0,0,0-.527-2.524,1.97,1.97,0,0,0-1.718-.771,2.154,2.154,0,0,0-1.857.912,4.815,4.815,0,0,0-.666,2.628l4.769.036Z" transform="translate(-5634.321 -483.438)" fill="#fff" fill-rule="evenodd"/>
    <path id="Path_116" data-name="Path 116" d="M3040.2,4939.284a8.191,8.191,0,0,1-2.243,1.3,5.828,5.828,0,0,1-2.244.456,5.129,5.129,0,0,1-4.277-1.928A9.216,9.216,0,0,1,3030,4933.5a8.965,8.965,0,0,1,1.437-5.574,5.04,5.04,0,0,1,4.277-1.928,6.046,6.046,0,0,1,2.1.422,10.772,10.772,0,0,1,2.384,1.19v2.594h-1.157a4.315,4.315,0,0,0-1.3-2,3.091,3.091,0,0,0-2.033-.666,2.963,2.963,0,0,0-2.769,1.506,8.366,8.366,0,0,0-.911,4.453,8.057,8.057,0,0,0,.911,4.312,3.033,3.033,0,0,0,2.769,1.507,3.288,3.288,0,0,0,2.033-.666,4.347,4.347,0,0,0,1.3-2.034h1.157Z" transform="translate(-2119.988 -1081.704)" fill="#fff" fill-rule="evenodd"/>
    <path id="Path_117" data-name="Path 117" d="M3364,4934h2.173l2.384,8.659c.14.56.281,1.122.385,1.682.14.561.246,1.122.351,1.718h.315c.07-.631.21-1.228.315-1.788.14-.561.28-1.087.385-1.612l2.384-8.659h2.173l-4.592,14.442h-1.648Z" transform="translate(-2442.279 -1089.424)" fill="#fff" fill-rule="evenodd"/>
    <path id="Path_118" data-name="Path 118" d="M3735.893,4934v8.9a5.653,5.653,0,0,0,.7,3.189,2.7,2.7,0,0,0,2.349.981,2.673,2.673,0,0,0,2.313-.981,5.646,5.646,0,0,0,.7-3.189V4934h1.928v8.764c0,2.137-.385,3.68-1.157,4.59a5.807,5.807,0,0,1-7.572,0c-.771-.91-1.157-2.453-1.157-4.59V4934Z" transform="translate(-2799.309 -1089.424)" fill="#fff" fill-rule="evenodd"/>
    <path id="Path_119" data-name="Path 119" d="M4072.171,4935.647H4068V4934h10.236v1.647H4074.1v12.794h-1.928Z" transform="translate(-3121.601 -1089.424)" fill="#fff" fill-rule="evenodd"/>
    <path id="Path_120" data-name="Path 120" d="M3097.085,4795.173h.526a3.708,3.708,0,0,1,.806-1.366,2.875,2.875,0,0,1,1.192-.807h1.052v.666a5.066,5.066,0,0,0-1.227,1.087,7.03,7.03,0,0,0-.946,1.542h-2.314a8.251,8.251,0,0,0-1.052-1.647,3.524,3.524,0,0,0-1.121-.982V4793h1.086a3.125,3.125,0,0,1,1.192.807A4.131,4.131,0,0,1,3097.085,4795.173Z" transform="translate(-2181.744 -953.367)" fill="#fff" fill-rule="evenodd"/>
    <path id="Path_121" data-name="Path 121" d="M1744.462,3810.748l-.035-.49-.07-.456-.07-.456-.14-.456-.175-.455-.21-.421-.245-.42-.28-.351-.281-.385-.351-.315-.35-.315-.386-.28-.421-.246-.42-.211-.421-.175-.491-.14-.455-.071-.456-.07-.456-.034-.491.034-.456.07-.491.071-.42.14-.456.175-.421.211-.42.246-.385.28-.351.315-.315.315-.316.385-.281.351-.245.42-.21.421-.175.455-.14.456-.07.456-.07.456-.035.49.035.457.07.455.07.491.14.456.175.421.21.421.245.42.281.385.316.351.315.35.351.316.385.245.42.245.421.211.456.175.42.141.491.1.456.036.491.034.456-.034.456-.036.455-.1.491-.141.421-.175.42-.211.421-.245.386-.245.35-.316.351-.35.281-.351.28-.385.245-.42.21-.421.175-.421.14-.456.07-.491.07-.455Z" transform="translate(-868.451 0)" fill="#fff" fill-rule="evenodd"/>
    <path id="Path_122" data-name="Path 122" d="M1360.417,4201.378l-.771-.771-.807-.736-.841-.7-.911-.667-.876-.631-.911-.6-.947-.561-.981-.527-.981-.49-.982-.42-1.017-.421-1.016-.386-1.052-.315-1.052-.279-1.087-.246-1.052-.21-1.122-.175-1.052-.14-1.086-.071-1.122-.035h-1.086l-1.087.035-1.122.071-1.052.14-1.122.175-1.052.21-1.086.246-1.052.279-1.016.315-1.052.386-1.016.421-.982.42-.981.49-.981.527-.947.561-.912.6-.876.631-.911.667-.806.7-.841.736-.771.771,4.452,4.417.7-.667.7-.63.771-.6.771-.6.841-.525.841-.526.841-.456.841-.421.911-.42.911-.351.911-.28.946-.281.947-.246.946-.175.947-.14.981-.1.982-.07.982-.036.946.036.982.07.981.1.947.14.946.175.947.246.946.281.911.28.912.351.911.42.842.421.876.456.806.526.806.525.806.6.771.6.7.63.736.667Z" transform="translate(-469.929 -374.399)" fill="#fff" fill-rule="evenodd"/>
    <path id="Path_123" data-name="Path 123" d="M2348.428,5199.714v-.456l-.07-.492-.105-.456-.105-.455-.175-.421-.21-.42-.245-.421-.281-.385-.315-.351-.316-.352-.386-.315-.35-.245-.421-.246-.42-.21-.456-.175-.421-.141-.49-.1-.456-.035-.455-.036-.491.036-.491.035-.421.1-.49.141-.421.175-.421.21-.42.246-.386.245-.351.315-.35.352-.315.351-.246.385-.245.421-.21.42-.175.421-.14.455-.105.456-.035.492-.035.456.035.455.035.491.105.456.14.455.175.456.21.42.245.388.246.384.315.386.35.316.351.315.386.281.42.245.421.21.421.141.49.141.421.1.491.07h.946l.456-.07.49-.1.421-.141.456-.141.42-.21.421-.245.35-.281.386-.315.316-.316.315-.386.281-.384.245-.388.21-.42.175-.456.105-.455.105-.456.07-.491Z" transform="translate(-1451.279 -1340.311)" fill="#fff" fill-rule="evenodd"/>
    <path id="Path_124" data-name="Path 124" d="M844.427,5027.749v-.491l-.07-.456-.105-.455-.14-.456-.14-.457-.21-.421-.245-.385-.28-.384-.315-.386-.315-.316-.386-.315-.385-.281-.386-.21-.421-.245-.456-.141-.456-.14-.456-.106-.456-.07-.491-.035-.456.035-.491.07-.456.106-.456.14-.456.141-.421.245-.385.21-.386.281-.35.315-.351.316-.315.386-.245.384-.245.385-.21.421-.175.457-.14.456-.105.455-.035.456-.035.491.035.455.035.491.105.456.14.455.175.421.21.421.245.419.245.386.315.351.351.351.35.281.386.28.385.245.421.211.456.175.456.141.456.1.491.036.456.035.491-.035.456-.036.456-.1.456-.141.456-.175.421-.211.386-.245.385-.28.386-.281.315-.351.315-.351.28-.386.245-.419.21-.421.14-.421.14-.455.105-.456.07-.491Z" transform="translate(0 -1174.339)" fill="#fff" fill-rule="evenodd"/>
    <path id="Path_125" data-name="Path 125" d="M1103.68,4484.48l-1.507,5.538-1.052-.315-1.016-.315-1.017-.387-1.016-.42-1.017-.491-.981-.491-.946-.526-.946-.561-.911-.63-.876-.631-.841-.667-.841-.736-.806-.736-.771-.771-.771-.771-.7-.841-.7-.84-.666-.912-.6-.876-.6-.948-.561-.946-.491-.98-.491-.981-.421-.981-.386-1.016-.386-1.051-.315-1.052-.28-1.052-.21-1.087-.21-1.051-.14-1.086-.14-1.087-.07-1.121v-2.173l.07-1.086.1-1.087.141-1.087.175-1.086.21-1.086.245-1.052,6.1,1.612-.21.947-.21.947-.14.981-.105.982-.07.947-.035.981.035.981.07.947.105.98.14.948.21.946.21.981.28.912.315.946.351.876.386.911.421.877.49.84.491.843.561.806.561.771.6.771.666.736.666.7.7.666.7.631.771.631.771.56.841.562.841.49.841.457.841.456.911.385.911.35.911.316.946.281-1.647,6.064Z" transform="translate(-239.307 -627.215)" fill="#fff" fill-rule="evenodd"/>
    <path id="Path_126" data-name="Path 126" d="M1766.612,4661.019l1.052-.281,1.052-.35,1.017-.386,1.016-.421.982-.455.982-.526.946-.526.947-.562.911-.595.876-.667.876-.666.841-.7.806-.736.771-.771.771-.807.7-.841.7-.841.631-.876.631-.912.561-.947.561-.911.526-.981.456-1.016.455-.982.386-1.016.351-1.052.315-1.051.281-1.051.245-1.052.175-1.087.175-1.086.105-1.086.07-1.087.035-1.121-.035-1.087-.035-1.086-.1-1.086-.14-1.087-.175-1.086-.245-1.087-.245-1.051-6.064,1.647.21.911.21.981.14.946.105.981.035.946.035.982-.035.982-.035.981-.105.946-.14.982-.21.946-.21.947-.281.946-.315.912-.351.911-.385.876-.456.877-.456.84-.491.842-.561.808-.561.805-.6.736-.666.736-.666.7-.7.666-.736.666-.771.6-.771.56-.806.562-.841.491-.841.456-.877.455-.876.386-.911.35-.947.315-.911.281Z" transform="translate(-899.33 -792.221)" fill="#fff" fill-rule="evenodd"/>
  </g>
</svg>
