<svg id="twitter" xmlns="http://www.w3.org/2000/svg" width="23.899" height="23.898" viewBox="0 0 23.899 23.898">
  <ellipse id="Ellipse_7" data-name="Ellipse 7" cx="11.949" cy="11.949" rx="11.949" ry="11.949" transform="translate(0 0)" fill="#55acee"/>
  <g id="Group_6" data-name="Group 6" transform="translate(5.347 7.248)">
    <path id="Path_30" data-name="Path 30" d="M39.025,35.367a5.7,5.7,0,0,1-1.641.449,2.864,2.864,0,0,0,1.256-1.58,5.718,5.718,0,0,1-1.814.693,2.859,2.859,0,0,0-4.867,2.606,8.108,8.108,0,0,1-5.887-2.985,2.859,2.859,0,0,0,.884,3.813,2.836,2.836,0,0,1-1.294-.358c0,.012,0,.024,0,.036a2.858,2.858,0,0,0,2.291,2.8,2.867,2.867,0,0,1-1.29.049,2.859,2.859,0,0,0,2.668,1.984A5.766,5.766,0,0,1,25.1,44.059a8.123,8.123,0,0,0,12.5-6.843c0-.124,0-.247-.008-.369a5.792,5.792,0,0,0,1.425-1.478Z" transform="translate(-25.103 -34.028)" fill="#f1f2f2"/>
  </g>
</svg>
