<svg xmlns="http://www.w3.org/2000/svg" width="38.298" height="38.298" viewBox="0 0 38.298 38.298">
  <g id="Group_42" data-name="Group 42" transform="translate(-1437 -195)">
    <circle id="Ellipse_5" data-name="Ellipse 5" cx="19.149" cy="19.149" r="19.149" transform="translate(1437 195)" fill="#eee"/>
    <g id="internet" transform="translate(1444.994 202.994)">
      <g id="Group_35" data-name="Group 35" transform="translate(0)">
        <path id="Path_43" data-name="Path 43" d="M11.136,0A11.136,11.136,0,1,0,22.271,11.136,11.136,11.136,0,0,0,11.136,0ZM8.383,1.126A9.434,9.434,0,0,0,5.946,4.885a16.275,16.275,0,0,1-2.427-.8A10.38,10.38,0,0,1,8.383,1.126ZM3.008,4.679A16.732,16.732,0,0,0,5.7,5.63a17.957,17.957,0,0,0-.826,5.13v-.015H.771A10.325,10.325,0,0,1,3.008,4.679Zm0,12.872A10.325,10.325,0,0,1,.771,11.486l4.1.01A17.958,17.958,0,0,0,5.7,16.641,16.736,16.736,0,0,0,3.008,17.552Zm.51.621v-.03a16.259,16.259,0,0,1,2.427-.8,9.435,9.435,0,0,0,2.437,3.8A10.38,10.38,0,0,1,3.518,18.172Zm7.242,3.313c-1.682-.215-3.153-1.847-4.089-4.269a22.245,22.245,0,0,1,4.089-.435Zm0-5.485a22.945,22.945,0,0,0-4.339.47,17.482,17.482,0,0,1-.791-4.96V11.5h5.13Zm0-5.255H5.63a17.482,17.482,0,0,1,.791-5,22.946,22.946,0,0,0,4.339.5Zm0-5.255a22.259,22.259,0,0,1-4.089-.43C7.607,2.628,9.079,1,10.76.786Zm8.5-.781A10.325,10.325,0,0,1,21.5,10.775H17.4a17.957,17.957,0,0,0-.826-5.155A16.736,16.736,0,0,0,19.263,4.71ZM18.748,4.1a16.275,16.275,0,0,1-2.427.8,9.434,9.434,0,0,0-2.432-3.769A10.38,10.38,0,0,1,18.748,4.1ZM11.511.786C13.193,1,14.664,2.633,15.6,5.055a22.256,22.256,0,0,1-4.089.435Zm0,5.455a22.934,22.934,0,0,0,4.339-.47,17.482,17.482,0,0,1,.791,5h-5.13Zm0,5.285h5.13a17.482,17.482,0,0,1-.791,5,22.941,22.941,0,0,0-4.339-.5Zm0,9.96v-4.7a22.248,22.248,0,0,1,4.089.43C14.664,19.644,13.193,21.27,11.511,21.486Zm2.377-.34a9.434,9.434,0,0,0,2.437-3.764,16.259,16.259,0,0,1,2.427.8A10.38,10.38,0,0,1,13.888,21.145Zm5.375-3.553a16.724,16.724,0,0,0-2.693-.951,17.957,17.957,0,0,0,.826-5.13v.015h4.1A10.325,10.325,0,0,1,19.263,17.592Z" fill="#4a4a4a"/>
      </g>
    </g>
  </g>
</svg>
