<svg xmlns="http://www.w3.org/2000/svg" width="206" height="206" viewBox="0 0 206 206">
  <g id="Group_38" data-name="Group 38" transform="translate(-1437 -195)">
    <circle id="Ellipse_5" data-name="Ellipse 5" cx="103" cy="103" r="103" transform="translate(1437 195)" fill="#eee"/>
    <g id="internet" transform="translate(2540 650)">
      <g id="Group_35" data-name="Group 35" transform="translate(-1060 -412)">
        <path id="Path_43" data-name="Path 43" d="M59.9,0a59.9,59.9,0,1,0,59.9,59.9A59.9,59.9,0,0,0,59.9,0ZM45.091,6.057a50.746,50.746,0,0,0-13.11,20.217,87.538,87.538,0,0,1-13.056-4.28A55.832,55.832,0,0,1,45.091,6.057ZM16.179,25.17a90,90,0,0,0,14.483,5.115A96.586,96.586,0,0,0,26.22,57.878V57.8H4.146A55.535,55.535,0,0,1,16.179,25.17Zm0,69.238A55.535,55.535,0,0,1,4.146,61.781l22.074.054a96.59,96.59,0,0,0,4.442,27.674A90.02,90.02,0,0,0,16.179,94.408Zm2.746,3.338v-.162A87.459,87.459,0,0,1,31.981,93.3a50.748,50.748,0,0,0,13.11,20.432A55.834,55.834,0,0,1,18.925,97.746Zm38.953,17.821c-9.045-1.158-16.96-9.933-21.994-22.963a119.65,119.65,0,0,1,21.994-2.342Zm0-29.5a123.416,123.416,0,0,0-23.34,2.53,94.03,94.03,0,0,1-4.253-26.678v-.081H57.878Zm0-28.266H30.285a94.031,94.031,0,0,1,4.253-26.92,123.423,123.423,0,0,0,23.34,2.692Zm0-28.266a119.726,119.726,0,0,1-21.994-2.315C40.918,14.133,48.833,5.384,57.878,4.226Zm45.737-4.2a55.535,55.535,0,0,1,12.033,32.627H93.574a96.588,96.588,0,0,0-4.442-27.728A90.02,90.02,0,0,0,103.615,25.332Zm-2.773-3.284a87.538,87.538,0,0,1-13.056,4.28A50.746,50.746,0,0,0,74.7,6.057,55.831,55.831,0,0,1,100.842,22.047ZM61.916,4.226c9.045,1.158,16.96,9.933,21.994,22.963a119.709,119.709,0,0,1-21.994,2.342Zm0,29.343a123.359,123.359,0,0,0,23.34-2.53,94.031,94.031,0,0,1,4.253,26.92H61.916Zm0,28.428H89.509a94.031,94.031,0,0,1-4.253,26.92,123.4,123.4,0,0,0-23.34-2.692Zm0,53.571v-25.3A119.668,119.668,0,0,1,83.91,92.578C78.876,105.661,70.961,114.41,61.916,115.568ZM74.7,113.737a50.743,50.743,0,0,0,13.11-20.244,87.458,87.458,0,0,1,13.056,4.28A55.831,55.831,0,0,1,74.7,113.737Zm28.912-19.113a89.958,89.958,0,0,0-14.483-5.115,96.587,96.587,0,0,0,4.442-27.593V62h22.074A55.535,55.535,0,0,1,103.615,94.624Z" fill="#4a4a4a"/>
      </g>
    </g>
  </g>
</svg>
