<svg xmlns="http://www.w3.org/2000/svg" width="38.299" height="38.299" viewBox="0 0 38.299 38.299">
  <g id="Group_43" data-name="Group 43" transform="translate(-1437 -423)">
    <circle id="Ellipse_6" data-name="Ellipse 6" cx="19.149" cy="19.149" r="19.149" transform="translate(1437 423)" fill="#eee"/>
    <g id="muscle" transform="translate(1444.994 430.623)">
      <path id="Path_47" data-name="Path 47" d="M.426,22.274a10.778,10.778,0,0,0,5.912-1.1.383.383,0,0,1,.291-.037,18.589,18.589,0,0,0,7.5.38,15.482,15.482,0,0,0,5.456-2.987c.192-.143.373-.279.544-.4a4.362,4.362,0,0,1,.93-.437c.147-.056.348-.133.391-.16A.15.15,0,0,0,21.5,17.4v-.89c-.019-.7-2.971-11.542-3.429-12.92a.3.3,0,0,0-.088-.063L12.142.86l-1.889,2.46a.339.339,0,0,0,.021.423l1.867,2.093a.333.333,0,0,0,.455.045l.755-.7a.387.387,0,0,1,.332-.087.4.4,0,0,1,.279.213,2.1,2.1,0,0,0,1.218.281l.19-.019a.38.38,0,0,1,.374.2.384.384,0,0,1-.032.421c-.162.21-.289.378-.36.474l-.374,6.352a2.8,2.8,0,0,0,.5,1.21.384.384,0,0,1-.115.75c-.436,0-.806-.572-1.1-1.69a4.7,4.7,0,0,0-5.929.049A3.036,3.036,0,0,0,7.3,14.984a.384.384,0,0,1-.768-.008,3.209,3.209,0,0,1,1.026-1.941,4.9,4.9,0,0,0-3.18-1.961A5.572,5.572,0,0,0,.627,12.2a.384.384,0,0,1-.486-.595,6.264,6.264,0,0,1,4.319-1.3,5.612,5.612,0,0,1,3.676,2.214,5.459,5.459,0,0,1,6.113-.178l.344-5.841a.382.382,0,0,1,.056-.178A2.523,2.523,0,0,1,13.6,6l-.495.456a1.1,1.1,0,0,1-1.536-.11L9.7,4.254a1.113,1.113,0,0,1-.062-1.395L11.72.15a.384.384,0,0,1,.464-.115L18.3,2.828a.934.934,0,0,1,.5.506c.217.653,3.476,12.272,3.476,13.177V17.4a.916.916,0,0,1-.352.726,2.439,2.439,0,0,1-.59.273,4.164,4.164,0,0,0-.751.34c-.169.123-.348.258-.538.4a16.071,16.071,0,0,1-5.749,3.122,18.783,18.783,0,0,1-7.714-.349A11.508,11.508,0,0,1,1.515,23.1a10.568,10.568,0,0,1-1.173-.065.384.384,0,1,1,.085-.763Zm0,0" transform="translate(0 0)" fill="#4a4a4a"/>
      <path id="Path_48" data-name="Path 48" d="M427.818,383.306a.384.384,0,0,1,.766.042c0,.256-.189,1.125-2.625,1.531a.388.388,0,0,1-.063.005.384.384,0,0,1-.063-.763C427.535,383.838,427.795,383.357,427.818,383.306Zm0,0" transform="translate(-425.511 -365.685)" fill="#4a4a4a"/>
      <path id="Path_49" data-name="Path 49" d="M102.586,377.153c5.029,1.077,7.182-2.364,7.271-2.511a.384.384,0,0,1,.658.4,6.589,6.589,0,0,1-1.943,1.9,7.449,7.449,0,0,1-4.13,1.188,9.616,9.616,0,0,1-2.017-.222.384.384,0,1,1,.161-.751Zm0,0" transform="translate(-92.906 -357.561)" fill="#4a4a4a"/>
    </g>
  </g>
</svg>
