<svg xmlns="http://www.w3.org/2000/svg" width="206" height="206" viewBox="0 0 206 206">
  <g id="Group_39" data-name="Group 39" transform="translate(-1437 -423)">
    <circle id="Ellipse_6" data-name="Ellipse 6" cx="103" cy="103" r="103" transform="translate(1437 423)" fill="#eee"/>
    <g id="muscle" transform="translate(1480 464)">
      <path id="Path_47" data-name="Path 47" d="M2.294,119.806a57.972,57.972,0,0,0,31.8-5.937,2.059,2.059,0,0,1,1.566-.2c.223.06,22.43,6.012,40.317,2.042,11.151-2.479,21.668-10.333,29.348-16.068,1.031-.77,2.009-1.5,2.927-2.171a23.463,23.463,0,0,1,5-2.352c.789-.3,1.87-.716,2.1-.861a.809.809,0,0,0,.311-.653V88.819c-.1-3.788-15.983-62.08-18.446-69.5a1.6,1.6,0,0,0-.472-.341L65.313,4.626,55.151,17.856a1.821,1.821,0,0,0,.111,2.276L65.3,31.389a1.789,1.789,0,0,0,2.45.245l4.06-3.744a2.08,2.08,0,0,1,1.787-.466,2.167,2.167,0,0,1,1.5,1.143c.339.668,3.414,1.487,6.55,1.511l1.022-.1a2.042,2.042,0,0,1,2.014,1.051,2.066,2.066,0,0,1-.171,2.267c-.872,1.127-1.552,2.033-1.937,2.552l-2.01,34.164c1.246,4.852,2.387,6.23,2.671,6.506a2.066,2.066,0,0,1-.621,4.036c-2.343,0-4.333-3.078-5.932-9.088-16.428-12.292-30.765-.691-31.89.264-5.218,5.237-5.541,8.715-5.552,8.87a2.066,2.066,0,0,1-4.131-.046c0-.475.173-4.551,5.518-10.439-5.042-6.2-10.782-9.768-17.1-10.546-10.9-1.342-20.063,5.988-20.155,6.061a2.065,2.065,0,0,1-2.614-3.2c.427-.348,10.57-8.508,23.231-6.967,7.4.9,14.045,4.9,19.772,11.906,4.648-3.161,17.976-10.315,32.88-.958L78.49,34.99a2.052,2.052,0,0,1,.3-.958,13.573,13.573,0,0,1-5.646-1.752l-2.661,2.453a5.921,5.921,0,0,1-8.261-.593L52.181,22.882a5.987,5.987,0,0,1-.336-7.5L63.039.806a2.065,2.065,0,0,1,2.5-.62l32.9,15.028a5.022,5.022,0,0,1,2.663,2.721c1.17,3.511,18.694,66.008,18.694,70.877v4.8a4.929,4.929,0,0,1-1.894,3.9,13.12,13.12,0,0,1-3.173,1.467,22.4,22.4,0,0,0-4.04,1.828c-.908.664-1.873,1.385-2.893,2.147-7.98,5.959-18.907,14.12-30.925,16.79-17.107,3.8-37.189-.794-41.493-1.879a61.9,61.9,0,0,1-27.226,6.394,56.843,56.843,0,0,1-6.311-.348,2.065,2.065,0,1,1,.456-4.1Zm0,0" transform="translate(0 0)" fill="#4a4a4a"/>
      <path id="Path_48" data-name="Path 48" d="M437.916,384.8a2.066,2.066,0,0,1,4.119.228c0,1.379-1.019,6.05-14.119,8.233a2.1,2.1,0,0,1-.341.028,2.066,2.066,0,0,1-.337-4.1C436.4,387.662,437.794,385.077,437.916,384.8Zm0,0" transform="translate(-425.511 -290.021)" fill="#4a4a4a"/>
      <path id="Path_49" data-name="Path 49" d="M104.62,388.96c27.052,5.794,38.628-12.715,39.107-13.5a2.066,2.066,0,0,1,3.54,2.13A35.444,35.444,0,0,1,136.816,387.8a40.064,40.064,0,0,1-22.214,6.391A51.723,51.723,0,0,1,103.756,393a2.066,2.066,0,0,1,.865-4.04Zm0,0" transform="translate(-52.552 -283.578)" fill="#4a4a4a"/>
    </g>
  </g>
</svg>
