<svg xmlns="http://www.w3.org/2000/svg" width="38.299" height="38.299" viewBox="0 0 38.299 38.299">
  <g id="Group_44" data-name="Group 44" transform="translate(-1437 -674)">
    <circle id="Ellipse_7" data-name="Ellipse 7" cx="19.149" cy="19.149" r="19.149" transform="translate(1437 674)" fill="#eee"/>
    <g id="book" transform="translate(1444.994 685.155)">
      <g id="Group_37" data-name="Group 37" transform="translate(0 0)">
        <path id="Path_45" data-name="Path 45" d="M21.84,59.633H20.372v-.5a.432.432,0,0,0-.311-.432,12.16,12.16,0,0,0-3.113-.4,8.028,8.028,0,0,0-5.819,2.159A7.944,7.944,0,0,0,5.31,58.3a12.161,12.161,0,0,0-3.113.4.432.432,0,0,0-.311.432v.5H.432A.432.432,0,0,0,0,60.06V73.849a.431.431,0,0,0,.643.376,15.221,15.221,0,0,1,10.387-.863h.1a.432.432,0,0,0,.1,0,14.963,14.963,0,0,1,10.387.863.432.432,0,0,0,.648-.371V60.065A.432.432,0,0,0,21.84,59.633ZM.863,73.163V60.5H1.9V71.324a.432.432,0,0,0,.5.432,18.893,18.893,0,0,1,2.7-.216,11.2,11.2,0,0,1,3.687.557A15.871,15.871,0,0,0,.863,73.163ZM5.09,70.68a18.992,18.992,0,0,0-2.348.151V59.473a11.907,11.907,0,0,1,2.56-.285A7.048,7.048,0,0,1,10.689,61.3L10.7,72.057A10.091,10.091,0,0,0,5.09,70.68ZM11.565,61.3a7.113,7.113,0,0,1,5.388-2.115,11.959,11.959,0,0,1,2.56.285V70.831a18.988,18.988,0,0,0-2.336-.155,10.176,10.176,0,0,0-5.612,1.377ZM21.4,73.163a15.874,15.874,0,0,0-7.93-1.066,11.225,11.225,0,0,1,3.7-.557,18.888,18.888,0,0,1,2.715.212.432.432,0,0,0,.5-.432V60.5h1.032Z" transform="translate(0 -58.303)" fill="#4a4a4a"/>
      </g>
    </g>
  </g>
</svg>
