<svg xmlns="http://www.w3.org/2000/svg" width="206" height="206" viewBox="0 0 206 206">
  <g id="Group_40" data-name="Group 40" transform="translate(-1437 -674)">
    <circle id="Ellipse_7" data-name="Ellipse 7" cx="103" cy="103" r="103" transform="translate(1437 674)" fill="#eee"/>
    <g id="book" transform="translate(1480 675.697)">
      <g id="Group_37" data-name="Group 37" transform="translate(0 58.303)">
        <path id="Path_45" data-name="Path 45" d="M117.472,65.455h-7.895V62.762a2.322,2.322,0,0,0-1.672-2.322A65.407,65.407,0,0,0,91.163,58.3c-9.288,0-21.943,2.09-31.3,11.61C50.574,60.3,37.826,58.3,28.561,58.3A65.408,65.408,0,0,0,11.819,60.44a2.322,2.322,0,0,0-1.672,2.322v2.67H2.322A2.322,2.322,0,0,0,0,67.754V141.92a2.316,2.316,0,0,0,3.46,2.02c.232-.116,23.453-12.818,55.868-4.644h.557a2.324,2.324,0,0,0,.557,0c32.509-8.243,55.729,4.435,55.868,4.644a2.322,2.322,0,0,0,3.483-2V67.777A2.322,2.322,0,0,0,117.472,65.455ZM4.644,138.228V70.1h5.55v58.237a2.322,2.322,0,0,0,2.67,2.322A101.619,101.619,0,0,1,27.377,129.5a60.232,60.232,0,0,1,19.83,3A85.364,85.364,0,0,0,4.644,138.228Zm22.733-13.352a102.165,102.165,0,0,0-12.632.813V64.6a64.043,64.043,0,0,1,13.77-1.533c8.684,0,20.666,2,28.979,11.378l.07,57.842C52.733,129.126,43.306,124.876,27.377,124.876ZM62.207,74.442C70.52,65.154,82.5,63.064,91.186,63.064a64.324,64.324,0,0,1,13.77,1.533v61.093a102.137,102.137,0,0,0-12.562-.836c-15.836,0-25.287,4.249-30.187,7.407Zm52.919,63.786a85.381,85.381,0,0,0-42.656-5.735,60.375,60.375,0,0,1,19.923-3A101.589,101.589,0,0,1,107,130.635a2.322,2.322,0,0,0,2.67-2.322V70.1h5.55Z" transform="translate(0 -58.303)" fill="#4a4a4a"/>
      </g>
    </g>
  </g>
</svg>
