<?xml version="1.0" encoding="UTF-8" standalone="no"?>
<!DOCTYPE svg PUBLIC "-//W3C//DTD SVG 1.1//EN"
"http://www.w3.org/Graphics/SVG/1.1/DTD/svg11.dtd">


<!-- Page 1 -->
<svg x="0" y="0" width="788" height="679" viewBox="0 0 788 679" version="1.1" xmlns="http://www.w3.org/2000/svg" xmlns:xlink="http://www.w3.org/1999/xlink"
style="display: block;margin-left: auto;margin-right: auto;">
<defs>
<clipPath id="c_1"><path d="M0,0H788V679H0Z" /></clipPath>
<style type="text/css"><![CDATA[

.g0_1{
fill: #00AEEF;
}
.g1_1{
fill: #414142;
}

]]></style>

</defs>
<g clip-path="url(#c_1)">
<path d="M0,0
L0,679
L788,679
L788,0 Z " 
fill="#FFFFFF" stroke="none" />
<path fill-rule="evenodd" d="M427,69.4c33.4,-2.9,44.2,40.6,23,63c-11.6,12.3,-38.1,13.5,-49.6,0c-15.3,-17.8,-5.2,-50.1,11,-59.3c4.1,-2.3,9.8,-3.2,15.6,-3.7Z" class="g0_1" />
<path fill-rule="evenodd" d="M318.1,72.2c15.1,-1.9,28.6,5.6,34,14.8c7.3,12.6,2.3,34.7,-2.8,41.7c-9.8,13.8,-35.7,18.6,-51.5,7.4C281.9,124.8,283.3,92.7,296.9,80.5c4.9,-4.3,13.8,-7.4,21.2,-8.3Z" class="g0_1" />
<path fill-rule="evenodd" d="M540.1,73.1c35.1,-2.5,44.7,46,21.2,66.7c-11.3,10,-33.7,12.8,-46.9,.9C496.9,125,506.7,88,522.7,77.8c4.4,-2.9,10.9,-4.2,17.4,-4.7Z" class="g0_1" />
<path fill-rule="evenodd" d="M691.9,179.6c2,8.6,.9,21.9,-1,29.7c-78.5,-2.7,-166.2,-3.7,-251,-3.7c-59.3,0,-118.7,2,-172.9,8.3c-53.6,6.2,-94.1,19.3,-136.1,27.8c-3.8,-18.7,4.2,-38.4,2.7,-54.7C187.1,173.3,237.4,171,301,167.6c57.2,-3,134.5,-1,200.8,1.4c68.4,2.5,130.3,4.2,190.1,10.6Z" class="g1_1" />
<path fill-rule="evenodd" d="M287.2,234.3c16.6,2.7,28.1,-.8,53.7,2.3c-4.9,36,-40.4,63,-57.3,92.1c-14.9,25.5,-22,61.1,-19.4,103.7c-9.7,3.2,-20,-1.9,-31.2,-2.7c-20.8,-1.6,-42.6,3.7,-58,0c8,-94.9,65.8,-139.4,112.2,-195.4Z" class="g0_1" />
<path fill-rule="evenodd" d="M429.8,241.7c5.5,30.9,-13.8,54.8,-22.1,81.5c-8.1,26.2,-14.2,59.4,-11.9,94.4c.4,7.7,2.7,11.6,0,19.5c-15.8,1.2,-34.2,-1.6,-52.5,-2.8c-16.5,-1.1,-34.5,2.5,-47.8,-3.7c9.9,-78.4,69.3,-114.9,80.9,-194.5c13.5,6.2,38,1.3,53.4,5.6Z" class="g0_1" />
<path fill-rule="evenodd" d="M553.9,238.9c5.3,55.5,-37.7,78.6,-34,137c1.5,22.6,15.7,38.3,15.6,61.2c-30.5,3.1,-70.9,.5,-101.1,-2.8c5.2,-78.4,46.4,-120.6,57.9,-192.6c13.3,-4.2,42.3,-4.8,61.6,-2.8Z" class="g0_1" />
<path fill-rule="evenodd" d="M164.4,477.4c5.3,-.6,10.2,2,12.1,5.3c2.6,4.5,.8,12.4,-1,14.9c-3.5,4.9,-12.8,6.6,-18.4,2.6c-5.6,-4,-5.2,-15.5,-.3,-19.8c1.8,-1.6,4.9,-2.6,7.6,-3Z" class="g1_1" />
<path fill-rule="evenodd" d="M488.4,560.5c3.2,-.2,6,.4,8.3,1.7c-.1,5.4,-.9,10.2,-2.3,14.4c-1.6,4.7,-3.8,8.4,-6.6,11.1c-2.9,2.6,-6.1,4,-9.9,4c-1.4,0,-2.7,-.2,-4,-.6c-5.6,-8.5,-1.1,-23.8,6,-28.3c2.2,-1.4,5.3,-2,8.5,-2.3Z" class="g0_1" />
<path d="M717.6,553c.1,-5.2,-.4,-10.1,-1.5,-14.8c-1,-4.6,-2.7,-8.8,-5.1,-12.5c-2.4,-3.7,-5.7,-6.6,-9.8,-8.7c-4.1,-2.1,-9.2,-3.2,-15.4,-3.2c-4,0,-7.8,.4,-11.4,1.2c-3.5,.7,-6.6,1.7,-9.4,2.9c-2.8,1.3,-5.1,2.6,-7,4l3.8,15.3c1.7,-1.4,3.7,-2.6,6,-3.6c2.2,-1,4.6,-1.8,7.1,-2.4c2.5,-.6,5,-.9,7.6,-.9c3.4,0,6.1,.6,8.2,1.7c2.1,1.1,3.7,2.4,4.7,4.1c1.1,1.7,1.8,3.4,2.2,5.3c.4,1.8,.6,3.5,.6,5.1V548c-9.6,-.1,-17.7,1.2,-24.6,3.9c-6.8,2.6,-12,6.5,-15.6,11.7c-3.7,5.2,-5.6,11.7,-5.6,19.4c0,3.6,.6,7,1.6,10.3c1.1,3.3,2.6,6.2,4.7,8.8c2.1,2.6,4.6,4.7,7.6,6.2c3,1.5,6.5,2.3,10.3,2.3c3.4,0,6.6,-.5,9.4,-1.6c2.9,-1,5.5,-2.5,7.7,-4.3c2.3,-1.9,4.2,-4,5.7,-6.4h.5l1.4,10.2h17.6c-.5,-2.9,-.8,-6.2,-1,-10.1c-.2,-3.9,-.3,-7.9,-.3,-12.1Zm-19,23c0,.8,0,1.7,0,2.6c-.1,.8,-.2,1.7,-.4,2.5c-.7,2.3,-1.7,4.4,-3.1,6.3c-1.4,1.9,-3.1,3.5,-5.2,4.6c-2.1,1.2,-4.5,1.8,-7.1,1.9c-2.1,0,-3.9,-.5,-5.6,-1.4c-1.7,-1,-3,-2.5,-4,-4.4c-.9,-2,-1.4,-4.5,-1.5,-7.5c.1,-3.5,.8,-6.4,2.3,-8.7c1.5,-2.3,3.5,-4.1,6,-5.4c2.5,-1.2,5.4,-2.1,8.6,-2.6c3.2,-.5,6.6,-.7,10,-.7Z" class="g1_1" />
<path d="M595,473.2H575.5V608.5H595V576.9l6.5,-9.3l22.1,40.9h23.9L614.9,553.7l28.7,-37.9H620.1l-18.8,29.9c-1,1.7,-2,3.4,-3,5.3c-1.1,1.9,-2.1,3.7,-3,5.6H595Z" class="g1_1" />
<path d="M534.8,608.5h19.5V473.2H534.8Z" class="g1_1" />
<path d="M480.5,513.8c-5.8,0,-11.1,1.1,-16,3.3c-4.9,2.3,-9.1,5.5,-12.6,9.8c-3.6,4.2,-6.3,9.4,-8.3,15.4c-1.9,6.1,-2.9,12.9,-3,20.6c.1,7.4,1.1,14.1,3,20c2,5.9,4.7,10.9,8.2,15c3.5,4.2,7.6,7.3,12.3,9.5c4.6,2.1,9.7,3.2,15.2,3.2c3.9,0,7.8,-.6,11.6,-1.8c3.8,-1.3,7.4,-3.2,10.8,-5.7c3.3,-2.6,6.3,-5.8,8.9,-9.7c2.5,-3.9,4.5,-8.5,6,-13.9c1.5,-5.3,2.2,-11.3,2.2,-18.2c0,-7,-.9,-13.5,-2.7,-19.3c-1.8,-5.8,-4.4,-10.8,-7.8,-15c-3.4,-4.2,-7.4,-7.5,-12.1,-9.8c-4.7,-2.3,-9.9,-3.4,-15.7,-3.4Zm-.4,16.9c3.3,0,6.1,1,8.5,2.8c2.4,1.9,4.3,4.3,5.8,7.4c1.5,3,2.6,6.4,3.3,10c.7,3.7,1,7.3,1,11c0,6.3,-.8,11.9,-2.4,16.6c-1.6,4.8,-3.8,8.5,-6.6,11.1c-2.8,2.7,-6.1,4.1,-9.8,4.1c-2.9,0,-5.6,-.8,-7.9,-2.4c-2.4,-1.6,-4.4,-3.8,-6.1,-6.6c-1.6,-2.8,-2.9,-6.1,-3.8,-9.9c-.9,-3.9,-1.3,-8,-1.3,-12.5c0,-3.9,.3,-7.7,1,-11.5c.8,-3.7,1.9,-7.1,3.4,-10.1c1.6,-3,3.6,-5.4,6,-7.2c2.5,-1.9,5.4,-2.8,8.9,-2.8Z" class="g1_1" />
<path d="M391.3,513.8c-5.9,0,-11.2,1.1,-16.1,3.3c-4.8,2.3,-9,5.5,-12.6,9.8c-3.6,4.2,-6.3,9.4,-8.3,15.4c-1.9,6.1,-2.9,12.9,-2.9,20.6c0,7.4,1,14.1,3,20c1.9,5.9,4.7,10.9,8.2,15c3.5,4.2,7.6,7.3,12.2,9.5c4.7,2.1,9.7,3.2,15.2,3.2c4,0,7.8,-.6,11.7,-1.8c3.8,-1.3,7.3,-3.2,10.7,-5.7c3.4,-2.6,6.3,-5.8,8.9,-9.7c2.6,-3.9,4.6,-8.5,6,-13.9c1.5,-5.3,2.2,-11.3,2.3,-18.2c-.1,-7,-1,-13.5,-2.8,-19.3C425,536.2,422.4,531.2,419,527c-3.4,-4.2,-7.4,-7.5,-12.1,-9.8c-4.7,-2.3,-9.9,-3.4,-15.6,-3.4Zm-.5,16.9c3.3,0,6.2,1,8.5,2.8c2.4,1.9,4.3,4.3,5.8,7.4c1.5,3,2.6,6.4,3.3,10c.7,3.7,1.1,7.3,1.1,11c-.1,6.3,-.8,11.9,-2.5,16.6c-1.5,4.8,-3.7,8.5,-6.6,11.1c-2.8,2.7,-6,4.1,-9.8,4.1c-2.9,0,-5.6,-.8,-7.9,-2.4c-2.4,-1.6,-4.4,-3.8,-6,-6.6c-1.7,-2.8,-3,-6.1,-3.9,-9.9c-.9,-3.9,-1.3,-8,-1.3,-12.5c0,-3.9,.3,-7.7,1.1,-11.5c.7,-3.7,1.8,-7.1,3.4,-10.1c1.5,-3,3.5,-5.4,6,-7.2c2.4,-1.9,5.4,-2.8,8.8,-2.8Z" class="g1_1" />
<path d="M340.6,588.4c-1.9,.9,-4.1,1.8,-6.6,2.5c-2.5,.7,-5.4,1,-8.7,1.1c-3.4,0,-6.5,-.7,-9.3,-2c-2.9,-1.3,-5.4,-3.3,-7.5,-5.8c-2.1,-2.6,-3.8,-5.7,-5,-9.4c-1.2,-3.7,-1.8,-7.9,-1.8,-12.7c0,-4.3,.5,-8.2,1.5,-11.8c1.1,-3.7,2.6,-6.9,4.6,-9.6c2.1,-2.7,4.5,-4.8,7.5,-6.4c2.9,-1.5,6.2,-2.2,10,-2.3c3.4,.1,6.4,.4,8.8,1.1c2.4,.7,4.3,1.6,5.9,2.5l3.5,-17.7c-1.5,-.7,-3.3,-1.4,-5.3,-2.1c-2,-.6,-4.2,-1.1,-6.5,-1.5c-2.3,-.4,-4.7,-.5,-7.1,-.5c-6.7,0,-12.8,1.3,-18.1,3.8c-5.3,2.4,-9.8,5.9,-13.5,10.4c-3.6,4.4,-6.4,9.7,-8.4,15.6c-1.9,6,-2.8,12.5,-2.9,19.4c.1,7.2,1,13.8,2.9,19.6c1.8,5.8,4.5,10.8,8,14.9c3.5,4.2,7.6,7.4,12.5,9.6c4.9,2.2,10.3,3.3,16.4,3.3c3.2,0,6.2,-.2,9,-.7c2.8,-.5,5.3,-1,7.5,-1.8c2.1,-.7,3.9,-1.5,5.3,-2.2Z" class="g1_1" />
<path d="M196.1,608.5h19.5V553.9c0,-1.4,.1,-2.7,.2,-4c.2,-1.3,.4,-2.4,.7,-3.4c.7,-2.4,1.8,-4.6,3.2,-6.7c1.4,-2.1,3.1,-3.7,5.1,-5c2,-1.3,4.3,-2,6.9,-2c3.6,0,6.4,1.1,8.5,3.1c2.2,2,3.8,4.8,4.8,8.3c1,3.5,1.5,7.5,1.4,12v52.3h19.5v-55c0,-7.3,-.8,-13.5,-2.4,-18.6c-1.5,-5,-3.6,-9.1,-6.2,-12.3c-2.7,-3.1,-5.6,-5.3,-8.8,-6.8c-3.2,-1.4,-6.6,-2.1,-10,-2c-3.2,0,-6.1,.5,-8.8,1.4c-2.6,1,-4.9,2.3,-7,3.8c-2.1,1.6,-3.8,3.3,-5.3,5.2c-1.5,1.9,-2.7,3.7,-3.6,5.5h-.4l-1,-13.9H195.5c.1,4,.3,8.3,.4,12.8c.1,4.6,.2,9.5,.2,14.8Z" class="g1_1" />
<path d="M175.1,608.5V515.8H155.6v92.7Z" class="g1_1" />
<path d="M69.3,601.1c2,1.5,4.5,2.8,7.6,4.1c3.1,1.2,6.5,2.2,10.2,3c3.7,.7,7.5,1.1,11.4,1.1c6.8,0,12.8,-1,18,-3.1c5.1,-2.1,9.3,-4.9,12.6,-8.5c3.4,-3.6,5.9,-7.7,7.5,-12.4c1.7,-4.7,2.5,-9.6,2.5,-14.9c0,-6.1,-1,-11.6,-3,-16.3c-2,-4.7,-5,-8.9,-9.1,-12.5c-4.1,-3.5,-9.2,-6.7,-15.5,-9.5c-4.7,-2.2,-8.6,-4.3,-11.7,-6.3c-3,-2,-5.2,-4.2,-6.7,-6.5C91.7,516.9,91,514.1,91,510.8c0,-2.6,.6,-5.1,1.8,-7.4c1.2,-2.4,3.1,-4.3,5.7,-5.8c2.7,-1.5,6,-2.3,10.2,-2.3c3.3,0,6.4,.4,9.1,1c2.8,.7,5.2,1.5,7.3,2.4c2.1,1,3.8,1.9,5.1,2.7l4.6,-18.8c-2.8,-1.9,-6.3,-3.4,-10.5,-4.7c-4.3,-1.3,-9.3,-1.9,-15.2,-2c-5.8,.1,-11.1,1,-15.8,2.8c-4.7,1.9,-8.7,4.5,-12,7.8c-3.3,3.4,-5.8,7.3,-7.6,11.8c-1.8,4.5,-2.6,9.5,-2.7,14.8c.1,6.2,1.3,11.6,3.6,16.3c2.4,4.7,5.8,8.8,10.1,12.3c4.4,3.5,9.5,6.5,15.5,9c4.5,1.9,8.2,3.9,11,6c2.8,2.1,4.8,4.4,6.1,6.9c1.3,2.4,1.9,5.3,1.9,8.6c0,3.5,-.8,6.6,-2.3,9.2c-1.5,2.6,-3.7,4.7,-6.6,6.2c-2.9,1.4,-6.4,2.2,-10.6,2.2c-3.3,0,-6.6,-.4,-9.8,-1.2c-3.2,-.7,-6.1,-1.7,-8.9,-3c-2.7,-1.2,-5.1,-2.6,-7.2,-4.1Z" class="g1_1" />
<path fill-rule="evenodd" d="M399.2,560.5c3.2,-.2,6,.4,8.3,1.7c-.2,5.4,-1,10.2,-2.4,14.4c-1.6,4.7,-3.8,8.4,-6.6,11.1c-2.8,2.6,-6.1,4,-9.8,4c-1.4,0,-2.8,-.2,-4.1,-.6c-5.6,-8.5,-1,-23.8,6,-28.3c2.2,-1.4,5.4,-2,8.6,-2.3Z" class="g0_1" />

</g>
</svg>
