<svg id="SU-logo-col" xmlns="http://www.w3.org/2000/svg" width="155.729" height="141" viewBox="0 0 155.729 141">
  <g id="Group_31" data-name="Group 31">
    <path id="Path_5" data-name="Path 5" d="M2197.2,6181.688h1.281a3.878,3.878,0,0,0,1.361,1.961,3.462,3.462,0,0,0,2.2.72,3.243,3.243,0,0,0,2.321-.841,2.669,2.669,0,0,0,.88-2.041,2.261,2.261,0,0,0-.64-1.681,10.645,10.645,0,0,0-3.082-1.6c-.08-.041-.24-.12-.44-.2a10.423,10.423,0,0,1-2.681-1.4,4.4,4.4,0,0,1-1.041-1.4,4.33,4.33,0,0,1-.36-1.761,4.089,4.089,0,0,1,1.361-3.2,4.986,4.986,0,0,1,3.522-1.241,8.4,8.4,0,0,1,2.441.36,8.6,8.6,0,0,1,2.2,1.041v3.042h-1.16a4.677,4.677,0,0,0-1.321-2.081,3.445,3.445,0,0,0-2.121-.68,2.756,2.756,0,0,0-1.961.72,2.225,2.225,0,0,0-.8,1.761c0,1.2,1.041,2.2,3.082,2.922.28.12.52.2.72.28a7.744,7.744,0,0,1,3.322,2,4.148,4.148,0,0,1,1,2.882,4.586,4.586,0,0,1-1.4,3.562,5.274,5.274,0,0,1-3.8,1.361,8.708,8.708,0,0,1-2.521-.36,9.58,9.58,0,0,1-2.361-1.081Z" transform="translate(-2197 -6074.386)" fill="#eee" fill-rule="evenodd"/>
    <path id="Path_6" data-name="Path 6" d="M2503.4,6223.25c-1.481,0-2.4-.161-2.761-.521s-.52-1.28-.52-2.721v-7.364H2498V6211.2h2.121V6208h2.041v3.2h2.721v1.441h-2.721v7.444c0,.84.08,1.321.32,1.481a2.66,2.66,0,0,0,1.481.28h.92v1.4Z" transform="translate(-2485.953 -6111.825)" fill="#eee" fill-rule="evenodd"/>
    <path id="Path_7" data-name="Path 7" d="M2733.005,6300.046h-2.081v-.84l-.24-.041a4.379,4.379,0,0,1-1.4.961,5.213,5.213,0,0,1-1.641.28,3.418,3.418,0,0,1-2.041-.6,3.628,3.628,0,0,1-1.321-1.721,4.781,4.781,0,0,1-.2-1.041c-.04-.44-.08-1.241-.08-2.481V6288h2.041v7.324a5.114,5.114,0,0,0,.48,2.642,1.942,1.942,0,0,0,1.681.681,3.841,3.841,0,0,0,1.321-.24,5.263,5.263,0,0,0,1.4-.92V6288h2.081Z" transform="translate(-2702.908 -6188.624)" fill="#eee" fill-rule="evenodd"/>
    <path id="Path_8" data-name="Path 8" d="M3027.565,6184.85h-2.041v-.92l-.24-.12a4.028,4.028,0,0,1-1.361,1.081,3.03,3.03,0,0,1-1.441.32,3.728,3.728,0,0,1-3.242-1.721,7.615,7.615,0,0,1-1.241-4.643,7.983,7.983,0,0,1,1.2-4.643,3.757,3.757,0,0,1,3.2-1.721,2.994,2.994,0,0,1,1.481.32,4.548,4.548,0,0,1,1.4,1l.24-.04V6168h2.041v16.85m-2.041-2.682v-6.684a5.965,5.965,0,0,0-1.281-.92,3.027,3.027,0,0,0-1.281-.32,2.385,2.385,0,0,0-2.121,1.161,7.055,7.055,0,0,0-.68,3.442,6.518,6.518,0,0,0,.721,3.4,2.318,2.318,0,0,0,2.081,1.16,2.888,2.888,0,0,0,1.281-.32A5.114,5.114,0,0,0,3025.524,6182.168Z" transform="translate(-2985.141 -6073.427)" fill="#eee" fill-rule="evenodd"/>
    <path id="Path_9" data-name="Path 9" d="M3335.606,6286.563v.36h-7.444a4.625,4.625,0,0,0,.841,3,3.189,3.189,0,0,0,2.521,1,4.653,4.653,0,0,0,1.681-.321,6.181,6.181,0,0,0,1.561-1.041h.841v2.042a11.2,11.2,0,0,1-2.161.881,8.139,8.139,0,0,1-1.921.24,5.2,5.2,0,0,1-4.123-1.6,6.847,6.847,0,0,1-1.4-4.643,7.342,7.342,0,0,1,1.4-4.762,4.435,4.435,0,0,1,3.723-1.721,4.283,4.283,0,0,1,3.281,1.281,5.117,5.117,0,0,1,1.2,3.562v1.721m-2-1.4a5.33,5.33,0,0,0-.6-2.882,2.228,2.228,0,0,0-1.961-.84,2.479,2.479,0,0,0-2.121,1,5.506,5.506,0,0,0-.76,3l5.443.04Z" transform="translate(-3280.814 -6180.944)" fill="#eee" fill-rule="evenodd"/>
    <path id="Path_10" data-name="Path 10" d="M3634,6280.32h2.082v.8l.2.081a4.676,4.676,0,0,1,1.481-.961,4.807,4.807,0,0,1,1.6-.24,3.312,3.312,0,0,1,2.722,1.121,5.293,5.293,0,0,1,.92,3.322v7.925h-2.041v-7.324a5.221,5.221,0,0,0-.48-2.642,2,2,0,0,0-1.681-.68,3.84,3.84,0,0,0-1.321.24,6.154,6.154,0,0,0-1.4.88v9.526H3634Z" transform="translate(-3576.487 -6180.944)" fill="#eee" fill-rule="evenodd"/>
    <path id="Path_11" data-name="Path 11" d="M3919.4,6223.25c-1.521,0-2.442-.161-2.761-.521-.36-.36-.52-1.28-.52-2.721v-7.364H3914V6211.2h2.121V6208h2.041v3.2h2.681v1.441h-2.681v7.444c0,.84.08,1.321.28,1.481a2.941,2.941,0,0,0,1.521.28h.88v1.4Z" transform="translate(-3845.281 -6111.825)" fill="#eee" fill-rule="evenodd"/>
    <path id="Path_12" data-name="Path 12" d="M4119,6290.525h1.04a3.453,3.453,0,0,0,1.2,1.2,3.726,3.726,0,0,0,1.681.4,2.5,2.5,0,0,0,1.681-.561,1.673,1.673,0,0,0,.641-1.4c0-.88-.88-1.64-2.722-2.2l-.2-.041a5.948,5.948,0,0,1-2.481-1.4,2.749,2.749,0,0,1-.76-2.041,3.039,3.039,0,0,1,1.161-2.521,4.767,4.767,0,0,1,3.122-.961,8.39,8.39,0,0,1,1.681.2,12.571,12.571,0,0,1,1.8.521v2.4h-.961a3.452,3.452,0,0,0-1.161-1.321,2.884,2.884,0,0,0-1.6-.4,2.123,2.123,0,0,0-1.4.48,1.566,1.566,0,0,0-.561,1.241,1.5,1.5,0,0,0,.521,1.24,5.906,5.906,0,0,0,2.4.96,4.946,4.946,0,0,1,2.4,1.36,3.022,3.022,0,0,1,.8,2.161,3.461,3.461,0,0,1-1.16,2.762,4.383,4.383,0,0,1-3.082,1.082,10.226,10.226,0,0,1-2.281-.241,5.429,5.429,0,0,1-1.761-.72Z" transform="translate(-4042.076 -6181.903)" fill="#eee" fill-rule="evenodd"/>
    <path id="Path_13" data-name="Path 13" d="M4389,6168h2.081v8.085a12.269,12.269,0,0,1-.08,1.241,10.327,10.327,0,0,1-.121,1.161l.48.24c.24-.44.48-.8.68-1.121a4.6,4.6,0,0,1,.521-.8l2.882-4h2.481l-4.2,5.083v.28a11.58,11.58,0,0,1,1.041,1.4.676.676,0,0,1,.08.2l3.122,5.083H4395.4l-2.842-5.8h-.521l-.96,1.161v4.642H4389Z" transform="translate(-4301.27 -6073.427)" fill="#eee" fill-rule="evenodd"/>
    <path id="Path_14" data-name="Path 14" d="M4646.844,6141.53a5.233,5.233,0,0,1-1.481,1.041,4.524,4.524,0,0,1-1.8.36,3.467,3.467,0,0,1-2.561-1.041,3.723,3.723,0,0,1-1-2.642,3.148,3.148,0,0,1,1.241-2.682,10.917,10.917,0,0,1,4.322-1.561l1.281-.2v-1a1.652,1.652,0,0,0-.641-1.36,2.877,2.877,0,0,0-1.761-.481,2.752,2.752,0,0,0-1.481.4,3.981,3.981,0,0,0-1.28,1.041h-1V6131a9.617,9.617,0,0,1,1.882-.521,8.782,8.782,0,0,1,1.76-.2,5.271,5.271,0,0,1,3.442,1,3.881,3.881,0,0,1,1.121,3.082v8.244h-2.041v-1.081m0-5.363a9.741,9.741,0,0,0-3.6,1.2,1.966,1.966,0,0,0-1.041,1.761,1.843,1.843,0,0,0,.6,1.44,2.27,2.27,0,0,0,1.6.6,3.281,3.281,0,0,0,1.2-.28,4.343,4.343,0,0,0,1.241-.8v-3.922m1.641-12.167v.761a13.714,13.714,0,0,0-2.2,1.4,11.82,11.82,0,0,0-1.8,1.641h-1.36v-.48a10.35,10.35,0,0,0,1.48-1.481,15.079,15.079,0,0,0,1.281-1.841Z" transform="translate(-4542.224 -6031.187)" fill="#eee" fill-rule="evenodd"/>
    <path id="Path_15" data-name="Path 15" d="M5110.005,6300.046h-2.122v-.84l-.2-.041a4.076,4.076,0,0,1-3.081,1.241,3.37,3.37,0,0,1-3.322-2.321,4.464,4.464,0,0,1-.24-1.041c-.041-.44-.041-1.241-.041-2.481V6288h2.042v7.324a5.117,5.117,0,0,0,.48,2.642,1.85,1.85,0,0,0,1.68.681,3.628,3.628,0,0,0,1.282-.24,6.14,6.14,0,0,0,1.44-.92V6288h2.082Z" transform="translate(-4984.773 -6188.624)" fill="#eee" fill-rule="evenodd"/>
    <path id="Path_16" data-name="Path 16" d="M5410,6280.32h2.081v.8l.24.081a4.393,4.393,0,0,1,1.4-.961,5.235,5.235,0,0,1,1.641-.24,3.23,3.23,0,0,1,2.681,1.121,5.055,5.055,0,0,1,.96,3.322v7.925h-2.041v-7.324a4.752,4.752,0,0,0-.521-2.642,1.918,1.918,0,0,0-1.641-.68,3.674,3.674,0,0,0-1.32.24,6.173,6.173,0,0,0-1.4.88v9.526H5410Z" transform="translate(-5281.407 -6180.944)" fill="#eee" fill-rule="evenodd"/>
    <path id="Path_17" data-name="Path 17" d="M5716,6168h2.642v2H5716v-2m2.281,4.8v12.047h-2.121V6172.8Z" transform="translate(-5575.16 -6073.427)" fill="#eee" fill-rule="evenodd"/>
    <path id="Path_18" data-name="Path 18" d="M5858.565,6286.563v.36h-7.444a4.628,4.628,0,0,0,.84,3,3.191,3.191,0,0,0,2.522,1,4.653,4.653,0,0,0,1.681-.321,5.038,5.038,0,0,0,1.561-1.041h.84v2.042a11.2,11.2,0,0,1-2.161.881,7.893,7.893,0,0,1-1.921.24,5.055,5.055,0,0,1-4.083-1.6,6.846,6.846,0,0,1-1.4-4.643,7.339,7.339,0,0,1,1.361-4.762,4.51,4.51,0,0,1,3.762-1.721,4.14,4.14,0,0,1,3.242,1.281,4.936,4.936,0,0,1,1.2,3.562v1.721m-2-1.4a5.386,5.386,0,0,0-.56-2.882,2.327,2.327,0,0,0-1.961-.84,2.386,2.386,0,0,0-2.122,1,5.484,5.484,0,0,0-.8,3l5.443.04Z" transform="translate(-5702.837 -6180.944)" fill="#eee" fill-rule="evenodd"/>
    <path id="Path_19" data-name="Path 19" d="M3495.687,6914.169a9.569,9.569,0,0,1-2.6,1.48,6.324,6.324,0,0,1-2.522.521,5.753,5.753,0,0,1-4.883-2.2,10.521,10.521,0,0,1-1.681-6.4q0-4.2,1.681-6.364a5.858,5.858,0,0,1,4.883-2.2,7.086,7.086,0,0,1,2.4.481,15.626,15.626,0,0,1,2.721,1.361v3h-1.321a4.624,4.624,0,0,0-1.521-2.321,3.381,3.381,0,0,0-2.321-.761,3.464,3.464,0,0,0-3.162,1.722,9.941,9.941,0,0,0-1.04,5.083,9.418,9.418,0,0,0,1.08,4.963,3.489,3.489,0,0,0,3.122,1.681,3.561,3.561,0,0,0,2.361-.761,4.972,4.972,0,0,0,1.481-2.321h1.321Z" transform="translate(-3432.491 -6775.169)" fill="#eee" fill-rule="evenodd"/>
    <path id="Path_20" data-name="Path 20" d="M3819,6907h2.481l2.722,9.886c.159.64.32,1.28.44,1.921.16.641.28,1.281.4,1.96h.321c.12-.72.24-1.36.4-2.041.12-.6.28-1.241.44-1.841l2.721-9.886h2.442l-5.243,16.49h-1.841Z" transform="translate(-3754.083 -6782.849)" fill="#eee" fill-rule="evenodd"/>
    <path id="Path_21" data-name="Path 21" d="M4190.2,6907v10.167a6.448,6.448,0,0,0,.8,3.642,3.1,3.1,0,0,0,2.682,1.161,3.073,3.073,0,0,0,2.641-1.161,6.353,6.353,0,0,0,.8-3.642V6907h2.161v10.006c0,2.442-.4,4.2-1.321,5.244-.88,1.08-2.281,1.6-4.282,1.6s-3.442-.521-4.322-1.6c-.881-1.041-1.361-2.8-1.361-5.244V6907Z" transform="translate(-4108.315 -6782.849)" fill="#eee" fill-rule="evenodd"/>
    <path id="Path_22" data-name="Path 22" d="M4527.763,6908.921H4523V6907h11.687v1.922h-4.762v14.568h-2.162Z" transform="translate(-4429.907 -6782.849)" fill="#eee" fill-rule="evenodd"/>
    <path id="Path_23" data-name="Path 23" d="M3552.482,6768.481h.64a4.825,4.825,0,0,1,.881-1.561,3.716,3.716,0,0,1,1.4-.921h1.2v.76a4.7,4.7,0,0,0-1.4,1.281,8.789,8.789,0,0,0-1.121,1.761h-2.6a9.833,9.833,0,0,0-1.2-1.921,4.494,4.494,0,0,0-1.281-1.121V6766h1.241a3.567,3.567,0,0,1,1.361.921A5.718,5.718,0,0,1,3552.482,6768.481Z" transform="translate(-3494.889 -6647.493)" fill="#eee" fill-rule="evenodd"/>
    <path id="Path_24" data-name="Path 24" d="M4147.087,3811.564l-.04-.56-.08-.521-.081-.52-.2-.52-.16-.52-.24-.48-.28-.48-.321-.4-.36-.44-.36-.361-.4-.36-.48-.321-.44-.28-.48-.24-.521-.2-.521-.16-.52-.08-.521-.08-.56-.04-.521.04-.56.08-.52.08-.521.16-.48.2-.48.24-.48.28-.44.321-.4.36-.4.361-.32.44-.32.4-.28.48-.24.48-.2.52-.16.52-.08.52-.12.521v1.08l.12.52.08.56.16.52.2.48.24.48.28.48.32.44.32.4.4.4.4.36.44.28.48.28.48.24.48.2.521.16.52.12.56.04.521.04.56-.04.521-.04.52-.12.521-.16.521-.2.48-.24.44-.28.48-.28.4-.36.36-.4.36-.4.321-.44.28-.48.24-.48.16-.48.2-.52.081-.56.08-.52Z" transform="translate(-4056.476 -3805)" fill="#eee" fill-rule="evenodd"/>
    <path id="Path_25" data-name="Path 25" d="M3767.146,4202.565l-.881-.88-.96-.84-.96-.8-1-.759-1-.721-1.08-.681-1.041-.641-1.121-.6-1.121-.56-1.12-.48-1.161-.48-1.2-.44-1.161-.36-1.2-.321-1.241-.28-1.24-.24-1.241-.2-1.241-.16-1.241-.08-1.241-.04h-1.241l-1.241.04-1.281.08-1.24.16-1.241.2-1.2.24-1.24.28-1.2.321-1.2.36-1.161.44-1.161.48-1.161.48-1.121.56-1.081.6-1.081.641-1.041.681-1.04.721-1,.759-.96.8-.921.84-.88.88,5.042,5.043.8-.761.841-.721.88-.68.881-.68.92-.6.96-.6,1-.52.96-.48,1.041-.48,1.041-.4,1.041-.32,1.081-.32,1.081-.28,1.081-.2,1.08-.161,1.121-.12,1.121-.08,1.081-.04,1.121.04,1.121.08,1.081.12,1.121.161,1.081.2,1.081.28,1.081.32,1.04.32,1.041.4,1,.48,1,.48.961.52.96.6.92.6.921.68.841.68.841.721.8.761Z" transform="translate(-3660.006 -4177.471)" fill="#eee" fill-rule="evenodd"/>
    <path id="Path_26" data-name="Path 26" d="M4751.048,5200.523V5200l-.081-.56-.12-.52-.161-.521-.16-.48-.24-.48-.28-.48-.32-.44-.36-.4-.36-.4-.44-.359-.4-.28-.48-.28-.48-.241-.52-.2-.521-.16-.52-.12-.561-.04-.52-.041-.521.041-.561.04-.52.12-.521.16-.48.2-.48.241-.48.28-.44.28-.4.359-.4.4-.359.4-.28.44-.28.48-.241.48-.2.48-.16.521-.121.52-.08.56v1.041l.08.561.121.521.16.521.2.52.241.481.28.44.28.44.359.44.4.36.4.36.44.321.48.28.48.24.48.16.521.16.52.12.561.081h1.041l.561-.081.52-.12.521-.16.52-.16.48-.24.48-.28.4-.321.44-.36.36-.36.36-.44.32-.44.28-.44.24-.481.16-.52.161-.521.12-.521.081-.561Z" transform="translate(-4636.302 -5138.409)" fill="#eee" fill-rule="evenodd"/>
    <path id="Path_27" data-name="Path 27" d="M3247.048,5028.563l-.04-.561-.04-.52-.12-.521-.16-.52-.2-.52-.24-.481-.28-.44-.32-.44-.32-.44-.4-.36-.4-.36-.44-.32-.44-.241-.52-.28-.48-.16-.52-.16-.521-.12-.521-.08-.56-.04-.561.04-.52.08-.52.12-.521.16-.52.16-.48.28-.44.241-.44.32-.44.36-.36.36-.36.44-.321.44-.28.44-.2.481-.2.52-.16.52-.12.521-.08.52v1.081l.08.561.12.52.16.52.2.48.2.481.28.48.321.44.36.4.36.4.44.32.44.32.44.281.48.24.52.2.521.16.52.12.52.04.561.04.56-.04.521-.04.521-.12.52-.16.48-.2.52-.24.44-.281.44-.32.4-.32.4-.4.32-.4.32-.44.28-.48.24-.481.2-.48.16-.52.12-.52.04-.561Z" transform="translate(-3192.497 -4973.292)" fill="#eee" fill-rule="evenodd"/>
    <path id="Path_28" data-name="Path 28" d="M3506.895,4488.659l-1.681,6.323-1.2-.36-1.2-.36-1.161-.44-1.161-.48-1.121-.561-1.12-.561-1.081-.6-1.08-.641-1.041-.721-1-.72-1-.76-.96-.841-.92-.84-.881-.88-.84-.88-.841-.961-.76-.96-.76-1.041-.721-1-.64-1.081-.64-1.08-.561-1.121-.56-1.121-.48-1.121-.48-1.161-.4-1.2-.36-1.2-.32-1.2-.24-1.24-.24-1.2-.16-1.241-.16-1.241-.08-1.281-.04-1.241.04-1.241.04-1.241.12-1.241.16-1.241.2-1.241.28-1.241.28-1.2,6.964,1.841-.28,1.081-.2,1.081-.2,1.12-.08,1.121-.08,1.081-.04,1.121.04,1.121.08,1.081.08,1.121.2,1.08.2,1.081.28,1.121.28,1.041.36,1.081.4,1,.48,1.041.48,1,.52.96.6.961.6.92.64.88.72.88.72.84.761.8.8.76.84.72.881.721.88.641.92.64.96.561,1,.52.96.52,1.041.441,1.04.4,1.041.36,1.081.32-1.881,6.924Z" transform="translate(-3429.611 -4428.985)" fill="#eee" fill-rule="evenodd"/>
    <path id="Path_29" data-name="Path 29" d="M4166.881,4665.983l1.2-.32,1.2-.4,1.161-.439,1.12-.48,1.161-.521,1.12-.6,1.081-.6,1.081-.641,1-.68,1.041-.761,1-.76.92-.8.96-.84.88-.88.841-.921.84-.961.76-.96.761-1,.72-1.041.641-1.081.641-1.04.561-1.121.56-1.161.48-1.121.48-1.16.4-1.2.36-1.2.32-1.2.28-1.2.2-1.241.16-1.241.121-1.241.12-1.241.04-1.281-.04-1.24-.04-1.241-.12-1.24-.16-1.241-.24-1.241-.24-1.241-.32-1.2-6.924,1.881.281,1.041.2,1.12.2,1.081.12,1.121.041,1.081.04,1.12-.04,1.121-.041,1.121-.12,1.081-.2,1.12-.2,1.081-.281,1.081-.28,1.081-.36,1.04-.4,1.041-.48,1-.48,1-.52.96-.6.96-.6.921-.641.921-.72.84-.721.84-.76.8-.8.76-.84.76-.881.681-.88.64-.961.64-.92.561-.96.52-1,.521-1.04.44-1.041.4-1.041.36-1.081.321Z" transform="translate(-4086.235 -4593.142)" fill="#eee" fill-rule="evenodd"/>
  </g>
</svg>
