<?xml version="1.0" encoding="iso-8859-1"?>
<!DOCTYPE svg PUBLIC "-//W3C//DTD SVG 1.0//EN" "http://www.w3.org/TR/2001/REC-SVG-20010904/DTD/svg10.dtd">
<!-- Creator: CorelDRAW -->
<svg xmlns="http://www.w3.org/2000/svg" xmlns:odm="http://product.corel.com/CGS/11/cddns/" xmlns:corel-charset="http://product.corel.com/CGS/11/cddns/" xml:space="preserve" width="8.26772in" height="11.6929in" style="shape-rendering:geometricPrecision; text-rendering:geometricPrecision; image-rendering:optimizeQuality; fill-rule:evenodd"
     viewBox="0 0 8268 11692">
 <defs>
  <style type="text/css">
   <![CDATA[
    .fil0 {fill:#CC3300}
   ]]>
  </style>
 </defs>
 <g id="Vrstva_x0020_1">
  <g>
   <path class="fil0" d="M2202 6486l32 0c7,21 18,37 34,49 15,12 34,18 55,18 24,0 43,-7 58,-21 15,-14 22,-31 22,-51 0,-17 -5,-31 -16,-42 -11,-11 -37,-24 -77,-40 -2,-1 -6,-3 -11,-5 -33,-13 -55,-25 -67,-35 -11,-10 -20,-22 -26,-35 -6,-14 -9,-28 -9,-44 0,-33 11,-59 34,-80 23,-21 52,-31 88,-31 21,0 41,3 61,9 20,6 38,15 55,26l0 76 -29 0c-8,-23 -19,-40 -33,-52 -15,-11 -32,-17 -53,-17 -20,0 -36,6 -49,18 -13,11 -20,26 -20,44 0,30 26,55 77,73 7,3 13,5 18,7 39,14 67,31 83,50 17,19 25,43 25,72 0,37 -11,67 -35,89 -24,23 -56,34 -95,34 -22,0 -43,-3 -63,-9 -20,-6 -40,-15 -59,-27l0 -76z"/>
   <path class="fil0" d="M2633 6589c-37,0 -60,-4 -69,-13 -9,-9 -13,-32 -13,-68l0 -184 -53 0 0 -36 53 0 0 -80 51 0 0 80 68 0 0 36 -68 0 0 186c0,21 2,33 8,37 5,4 17,7 37,7l23 0 0 35 -37 0z"/>
   <path class="fil0" d="M2949 6589l-52 0 0 -21 -6 -1c-11,11 -23,19 -35,24 -12,4 -26,7 -41,7 -20,0 -37,-5 -51,-15 -15,-10 -25,-24 -33,-43 -2,-6 -4,-15 -5,-26 -1,-11 -2,-31 -2,-62l0 -164 51 0 0 183c0,32 4,54 12,66 9,12 23,17 42,17 11,0 22,-2 33,-6 11,-5 23,-12 35,-23l0 -237 52 0 0 301z"/>
   <path class="fil0" d="M3257 6589l-51 0 0 -23 -6 -3c-11,13 -23,22 -34,27 -11,6 -24,8 -36,8 -34,0 -61,-14 -81,-43 -21,-28 -31,-67 -31,-116 0,-49 10,-87 30,-116 21,-29 47,-43 80,-43 14,0 26,2 37,8 12,5 24,14 35,25l6 -1 0 -144 51 0 0 421m-51 -67l0 -167c-11,-10 -22,-18 -32,-23 -11,-5 -21,-8 -32,-8 -23,0 -41,10 -53,29 -11,19 -17,48 -17,86 0,37 6,66 18,85 12,19 29,29 52,29 11,0 22,-3 32,-8 11,-5 21,-13 32,-23z"/>
   <path class="fil0" d="M3566 6444l0 9 -186 0c0,33 7,58 21,75 14,16 35,25 63,25 15,0 29,-3 42,-8 12,-5 25,-14 39,-26l21 0 0 51c-20,10 -38,18 -54,22 -17,4 -32,6 -48,6 -45,0 -79,-13 -103,-40 -23,-26 -35,-65 -35,-116 0,-51 12,-91 35,-119 22,-29 54,-43 93,-43 34,0 61,10 82,32 20,22 30,52 30,89l0 43m-50 -35c0,-33 -5,-57 -15,-72 -10,-14 -26,-21 -49,-21 -23,0 -40,8 -53,25 -12,17 -18,42 -19,75l136 1 0 -8z"/>
   <path class="fil0" d="M3634 6288l52 0 0 20 5 2c12,-11 24,-19 37,-24 11,-4 25,-6 40,-6 30,0 52,9 68,28 15,19 23,47 23,83l0 34 0 164 -51 0 0 -183c0,-32 -4,-53 -12,-66 -9,-11 -22,-17 -42,-17 -11,0 -22,2 -33,6 -11,5 -23,12 -35,22l0 238 -52 0 0 -301z"/>
   <path class="fil0" d="M4049 6589c-38,0 -61,-4 -69,-13 -9,-9 -13,-32 -13,-68l0 -184 -53 0 0 -36 53 0 0 -80 51 0 0 80 67 0 0 36 -67 0 0 186c0,21 2,33 7,37 6,4 18,7 38,7l22 0 0 35 -36 0z"/>
   <path class="fil0" d="M4119 6519l26 0c8,13 18,23 30,30 12,6 26,10 42,10 17,0 32,-5 42,-14 11,-9 16,-20 16,-35 0,-22 -22,-41 -68,-55l-5 -1c-29,-10 -49,-21 -62,-35 -13,-13 -19,-30 -19,-51 0,-26 9,-47 29,-63 20,-16 45,-24 78,-24 13,0 28,2 42,5 14,3 29,7 45,13l0 60 -24 0c-8,-15 -18,-26 -29,-33 -11,-7 -24,-10 -40,-10 -14,0 -25,4 -35,12 -10,9 -14,19 -14,31 0,13 4,24 13,31 8,8 28,16 60,24 27,8 47,19 60,34 14,15 20,33 20,54 0,29 -9,51 -29,69 -20,18 -45,27 -77,27 -20,0 -40,-2 -57,-6 -17,-4 -32,-10 -44,-18l0 -55z"/>
   <path class="fil0" d="M4389 6168l52 0 0 202c0,11 -1,21 -2,31 0,10 -2,20 -3,29l12 6c6,-11 12,-20 17,-28 4,-8 9,-15 13,-20l72 -100 62 0 -105 127 0 7c8,9 17,21 26,35 1,2 2,4 2,5l78 127 -64 0 -71 -145 -13 0 -24 29 0 116 -52 0 0 -421z"/>
   <path class="fil0" d="M4811 6562c-11,11 -24,20 -37,26 -14,6 -29,9 -45,9 -26,0 -47,-9 -64,-26 -16,-17 -25,-39 -25,-66 0,-29 10,-51 31,-67 21,-16 57,-29 108,-39l32 -5 0 -25c0,-15 -6,-26 -16,-34 -11,-8 -25,-12 -44,-12 -13,0 -26,3 -37,10 -12,6 -23,15 -32,26l-25 0 0 -60c17,-6 32,-11 47,-13 15,-3 29,-5 44,-5 38,0 67,9 86,25 19,17 28,42 28,77l0 206 -51 0 0 -27m0 -134c-43,8 -73,18 -90,30 -18,11 -26,26 -26,44 0,15 5,27 15,36 11,10 24,15 40,15 10,0 20,-3 30,-7 10,-4 21,-11 31,-20l0 -98m41 -304l0 19c-20,10 -38,22 -55,35 -17,13 -32,26 -45,41l-34 0 0 -12c14,-11 26,-24 37,-37 12,-14 22,-30 32,-46l65 0z"/>
   <path class="fil0" d="M5326 6589l-53 0 0 -21 -5 -1c-12,11 -24,19 -36,24 -12,4 -25,7 -41,7 -19,0 -36,-5 -51,-15 -14,-10 -25,-24 -32,-43 -3,-6 -4,-15 -6,-26 -1,-11 -1,-31 -1,-62l0 -164 51 0 0 183c0,32 4,54 12,66 8,12 22,17 42,17 10,0 22,-2 32,-6 11,-5 23,-12 36,-23l0 -237 52 0 0 301z"/>
   <path class="fil0" d="M5410 6288l52 0 0 20 6 2c11,-11 23,-19 35,-24 12,-4 26,-6 41,-6 29,0 52,9 67,28 16,19 24,47 24,83l0 34 0 164 -51 0 0 -183c0,-32 -4,-53 -13,-66 -8,-11 -22,-17 -41,-17 -12,0 -22,2 -33,6 -11,5 -23,12 -35,22l0 238 -52 0 0 -301z"/>
   <path class="fil0" d="M5716 6168l66 0 0 50 -66 0 0 -50m57 120l0 301 -53 0 0 -301 53 0z"/>
   <path class="fil0" d="M6088 6444l0 9 -186 0c0,33 7,58 21,75 14,16 35,25 63,25 15,0 29,-3 42,-8 13,-5 26,-14 39,-26l21 0 0 51c-20,10 -38,18 -54,22 -16,4 -32,6 -48,6 -45,0 -79,-13 -102,-40 -23,-26 -35,-65 -35,-116 0,-51 11,-91 34,-119 23,-29 54,-43 94,-43 34,0 61,10 81,32 21,22 30,52 30,89l0 43m-50 -35c0,-33 -4,-57 -14,-72 -11,-14 -27,-21 -49,-21 -24,0 -41,8 -53,25 -12,17 -19,42 -20,75l136 1 0 -8z"/>
   <path class="fil0" d="M3776 7278c-22,17 -43,29 -65,37 -21,9 -42,13 -63,13 -53,0 -94,-18 -122,-55 -28,-37 -42,-91 -42,-160 0,-70 14,-123 42,-159 28,-36 69,-55 122,-55 18,0 38,4 60,12 21,8 44,19 68,34l0 75 -33 0c-9,-27 -22,-46 -38,-58 -15,-13 -34,-19 -58,-19 -35,0 -61,14 -79,43 -17,28 -26,70 -26,127 0,54 9,95 27,124 18,28 44,42 78,42 24,0 43,-6 59,-19 16,-13 28,-32 37,-58l33 0 0 76z"/>
   <path class="fil0" d="M3819 6907l62 0 68 247c4,16 8,32 11,48 4,16 7,32 10,49l8 0c3,-18 6,-34 10,-51 3,-15 7,-31 11,-46l68 -247 61 0 -131 412 -46 0 -132 -412z"/>
   <path class="fil0" d="M4243 6907l0 254c0,42 7,73 20,91 14,19 36,29 67,29 30,0 52,-10 66,-29 13,-18 20,-48 20,-91l0 -254 54 0 0 250c0,61 -10,105 -33,131 -22,27 -57,40 -107,40 -50,0 -86,-13 -108,-40 -22,-26 -34,-70 -34,-131l0 -250 55 0z"/>
   <path class="fil0" d="M4642 6955l-119 0 0 -48 292 0 0 48 -119 0 0 364 -54 0 0 -364z"/>
   <path class="fil0" d="M3636 6828l16 0c6,-16 13,-29 22,-39 10,-10 21,-18 35,-23l30 0 0 19c-13,8 -25,18 -35,32 -11,13 -20,28 -28,44l-65 0c-9,-19 -19,-34 -30,-48 -11,-13 -22,-23 -32,-28l0 -19 31 0c13,5 25,13 34,23 8,10 16,23 22,39z"/>
   <path class="fil0" d="M4461 3969l-1 -14 -2 -13 -2 -13 -5 -13 -4 -13 -6 -12 -7 -12 -8 -10 -9 -11 -9 -9 -10 -9 -12 -8 -11 -7 -12 -6 -13 -5 -13 -4 -13 -2 -13 -2 -14 -1 -13 1 -14 2 -13 2 -13 4 -12 5 -12 6 -12 7 -11 8 -10 9 -10 9 -8 11 -8 10 -7 12 -6 12 -5 13 -4 13 -2 13 -3 13 0 14 0 13 3 13 2 14 4 13 5 12 6 12 7 12 8 11 8 10 10 10 10 9 11 7 12 7 12 6 12 5 13 4 13 3 14 1 13 1 14 -1 13 -1 13 -3 13 -4 13 -5 12 -6 11 -7 12 -7 10 -9 9 -10 9 -10 8 -11 7 -12 6 -12 4 -12 5 -13 2 -14 2 -13 1 -13z"/>
   <path class="fil0" d="M4874 4432l-22 -22 -24 -21 -24 -20 -25 -19 -25 -18 -27 -17 -26 -16 -28 -15 -28 -14 -28 -12 -29 -12 -30 -11 -29 -9 -30 -8 -31 -7 -31 -6 -31 -5 -31 -4 -31 -2 -31 -1 -31 0 -31 1 -32 2 -31 4 -31 5 -30 6 -31 7 -30 8 -30 9 -29 11 -29 12 -29 12 -28 14 -27 15 -27 16 -26 17 -26 18 -25 19 -24 20 -23 21 -22 22 126 126 20 -19 21 -18 22 -17 22 -17 23 -15 24 -15 25 -13 24 -12 26 -12 26 -10 26 -8 27 -8 27 -7 27 -5 27 -4 28 -3 28 -2 27 -1 28 1 28 2 27 3 28 4 27 5 27 7 27 8 26 8 26 10 25 12 25 12 24 13 24 15 23 15 23 17 21 17 21 18 20 19 127 -126z"/>
   <path class="fil0" d="M5064 5357l0 -13 -2 -14 -3 -13 -4 -13 -4 -12 -6 -12 -7 -12 -8 -11 -9 -10 -9 -10 -11 -9 -10 -7 -12 -7 -12 -6 -13 -5 -13 -4 -13 -3 -14 -1 -13 -1 -13 1 -14 1 -13 3 -13 4 -12 5 -12 6 -12 7 -11 7 -10 9 -10 10 -9 10 -7 11 -7 12 -6 12 -5 12 -4 13 -3 13 -2 14 0 13 0 13 2 14 3 13 4 13 5 13 6 12 7 11 7 11 9 11 10 9 10 9 11 8 12 7 12 6 12 4 13 4 13 3 14 2 13 0 13 0 14 -2 13 -3 13 -4 13 -4 12 -6 12 -7 10 -8 11 -9 9 -9 9 -11 8 -11 7 -11 6 -12 4 -13 4 -13 3 -13 2 -14 0 -13z"/>
   <path class="fil0" d="M3560 5186l-1 -14 -1 -13 -3 -13 -4 -13 -5 -13 -6 -12 -7 -11 -8 -11 -8 -11 -10 -9 -10 -9 -11 -8 -11 -6 -13 -7 -12 -4 -13 -4 -13 -3 -13 -2 -14 -1 -14 1 -13 2 -13 3 -13 4 -13 4 -12 7 -11 6 -11 8 -11 9 -9 9 -9 11 -8 11 -7 11 -5 12 -5 13 -4 13 -3 13 -2 13 0 14 0 13 2 14 3 13 4 13 5 12 5 12 7 12 8 11 9 10 9 10 11 8 11 8 11 7 12 6 13 5 13 4 13 3 13 1 14 1 14 -1 13 -1 13 -3 13 -4 12 -5 13 -6 11 -7 11 -8 10 -8 10 -10 8 -10 8 -11 7 -12 6 -12 5 -12 4 -13 3 -13 1 -14 1 -13z"/>
   <path class="fil0" d="M4128 5296l-42 158 -30 -9 -30 -9 -29 -11 -29 -12 -28 -14 -28 -14 -27 -15 -27 -16 -26 -18 -25 -18 -25 -19 -24 -21 -23 -21 -22 -22 -21 -22 -21 -24 -19 -24 -19 -26 -18 -25 -16 -27 -16 -27 -14 -28 -14 -28 -12 -28 -12 -29 -10 -30 -9 -30 -8 -30 -6 -31 -6 -30 -4 -31 -4 -31 -2 -32 -1 -31 1 -31 1 -31 3 -31 4 -31 5 -31 7 -31 7 -30 174 46 -7 27 -5 27 -5 28 -2 28 -2 27 -1 28 1 28 2 27 2 28 5 27 5 27 7 28 7 26 9 27 10 25 12 26 12 25 13 24 15 24 15 23 16 22 18 22 18 21 19 20 20 19 21 18 22 18 22 16 23 16 24 14 25 13 24 13 26 11 26 10 26 9 27 8 -47 173 42 -158z"/>
   <path class="fil0" d="M4212 5625l30 -8 30 -10 29 -11 28 -12 29 -13 28 -15 27 -15 27 -16 25 -17 26 -19 25 -19 23 -20 24 -21 22 -22 21 -23 21 -24 19 -24 19 -25 18 -26 16 -27 16 -26 14 -28 14 -29 12 -28 12 -29 10 -30 9 -30 8 -30 7 -30 5 -31 4 -31 3 -31 3 -31 1 -32 -1 -31 -1 -31 -3 -31 -4 -31 -6 -31 -6 -31 -8 -30 -173 47 7 26 5 28 5 27 3 28 1 27 1 28 -1 28 -1 28 -3 27 -5 28 -5 27 -7 27 -7 27 -9 26 -10 26 -12 25 -12 25 -13 24 -15 24 -15 23 -16 23 -18 21 -18 21 -19 20 -20 19 -21 19 -22 17 -22 16 -24 16 -23 14 -24 13 -25 13 -26 11 -26 10 -26 9 -27 8 47 173z"/>
  </g>
 </g>
</svg>
