<svg xmlns="http://www.w3.org/2000/svg" width="38.299" height="38.299" viewBox="0 0 38.299 38.299">
  <g id="Group_45" data-name="Group 45" transform="translate(-1437 -925)">
    <circle id="Ellipse_8" data-name="Ellipse 8" cx="19.149" cy="19.149" r="19.149" transform="translate(1437 925)" fill="#eee"/>
    <g id="briefcase" transform="translate(1444.994 934.854)">
      <g id="Group_36" data-name="Group 36" transform="translate(0 0)">
        <path id="Path_44" data-name="Path 44" d="M20.416,45.45h-4.64v-.928a1.858,1.858,0,0,0-1.856-1.856H8.352A1.858,1.858,0,0,0,6.5,44.522v.928H1.856A1.858,1.858,0,0,0,0,47.306V59.37a1.858,1.858,0,0,0,1.856,1.856h18.56a1.858,1.858,0,0,0,1.856-1.856V47.306A1.858,1.858,0,0,0,20.416,45.45ZM7.424,44.522a.929.929,0,0,1,.928-.928H13.92a.929.929,0,0,1,.928.928v.928H7.424ZM21.344,59.37a.929.929,0,0,1-.928.928H1.856a.929.929,0,0,1-.928-.928V52.616a1.835,1.835,0,0,0,.928.258H9.28v1.392a.464.464,0,0,0,.464.464h2.784a.464.464,0,0,0,.464-.464V52.874h7.424a1.834,1.834,0,0,0,.928-.258V59.37ZM10.208,53.8V51.946h1.856V53.8Zm11.136-2.784a.929.929,0,0,1-.928.928H12.992v-.464a.464.464,0,0,0-.464-.464H9.744a.464.464,0,0,0-.464.464v.464H1.856a.929.929,0,0,1-.928-.928V47.306a.929.929,0,0,1,.928-.928h18.56a.929.929,0,0,1,.928.928Z" transform="translate(0 -42.666)" fill="#4a4a4a"/>
      </g>
    </g>
  </g>
</svg>
