<svg xmlns="http://www.w3.org/2000/svg" width="206" height="206" viewBox="0 0 206 206">
  <g id="Group_41" data-name="Group 41" transform="translate(-1437 -925)">
    <circle id="Ellipse_8" data-name="Ellipse 8" cx="103" cy="103" r="103" transform="translate(1437 925)" fill="#eee"/>
    <g id="briefcase" transform="translate(1480 935.334)">
      <g id="Group_36" data-name="Group 36" transform="translate(0 42.666)">
        <path id="Path_44" data-name="Path 44" d="M109.811,57.64H84.854V52.649a9.993,9.993,0,0,0-9.983-9.983H44.923a9.993,9.993,0,0,0-9.983,9.983V57.64H9.983A9.993,9.993,0,0,0,0,67.623v64.888a9.993,9.993,0,0,0,9.983,9.983h99.828a9.993,9.993,0,0,0,9.983-9.983V67.623A9.993,9.993,0,0,0,109.811,57.64Zm-69.88-4.992a5,5,0,0,1,4.991-4.991H74.871a5,5,0,0,1,4.991,4.991V57.64H39.931ZM114.8,132.512a5,5,0,0,1-4.991,4.991H9.983a5,5,0,0,1-4.991-4.991V96.183a9.869,9.869,0,0,0,4.991,1.388H49.914v7.487a2.494,2.494,0,0,0,2.5,2.5H67.384a2.494,2.494,0,0,0,2.5-2.5V97.572h39.931a9.866,9.866,0,0,0,4.991-1.388v36.328Zm-59.9-29.948V92.58h9.983v9.983Zm59.9-14.974a5,5,0,0,1-4.991,4.991H69.88v-2.5a2.494,2.494,0,0,0-2.5-2.5H52.41a2.494,2.494,0,0,0-2.5,2.5v2.5H9.983a5,5,0,0,1-4.991-4.991V67.623a5,5,0,0,1,4.991-4.991h99.828a5,5,0,0,1,4.991,4.991Z" transform="translate(0 -42.666)" fill="#4a4a4a"/>
      </g>
    </g>
  </g>
</svg>
